<?xml version="1.0" encoding="UTF-8"?>
<svg xmlns="http://www.w3.org/2000/svg" xmlns:xlink="http://www.w3.org/1999/xlink" width="56px" height="56px" viewBox="0 0 56 56" version="1.1">
<g id="surface1">
<path style=" stroke:none;fill-rule:nonzero;fill:rgb(0%,0%,0%);fill-opacity:1;" d="M 38.09375 8.925781 C 40.023438 8.066406 41.945312 7.1875 43.882812 6.34375 C 46.132812 11.375 48.390625 16.40625 50.644531 21.441406 C 50.96875 22.128906 51.246094 22.835938 51.59375 23.511719 C 47.917969 25.175781 44.230469 26.808594 40.550781 28.46875 C 40.410156 28.539062 40.261719 28.578125 40.113281 28.617188 C 41.117188 28.570312 42.113281 28.78125 43.117188 28.8125 C 43.269531 28.785156 43.433594 28.785156 43.585938 28.828125 C 44.207031 28.984375 44.8125 29.226562 45.449219 29.304688 C 46.246094 29.546875 46.972656 29.988281 47.597656 30.53125 C 48.085938 30.972656 48.296875 31.621094 48.382812 32.257812 C 48.417969 32.589844 48.542969 32.910156 48.554688 33.246094 C 48.585938 33.820312 48.886719 34.34375 48.867188 34.921875 C 48.75 35.34375 48.691406 35.777344 48.679688 36.214844 L 48.722656 36.175781 C 48.703125 36.398438 48.648438 36.625 48.707031 36.847656 C 48.808594 37.378906 49.160156 37.816406 49.289062 38.339844 C 49.519531 38.902344 49.808594 39.441406 49.949219 40.035156 C 50.179688 40.773438 50.40625 41.519531 50.574219 42.277344 C 50.671875 42.644531 50.800781 43.023438 50.765625 43.410156 C 50.542969 43.777344 50.269531 44.117188 50.023438 44.46875 C 49.886719 43.925781 49.921875 43.355469 49.742188 42.824219 C 49.550781 41.890625 49.257812 40.984375 48.984375 40.070312 C 48.8125 39.527344 48.511719 39.03125 48.347656 38.484375 C 48.164062 37.878906 47.738281 37.339844 47.746094 36.683594 C 47.757812 36.328125 47.757812 35.972656 47.773438 35.617188 C 47.824219 35.257812 48.007812 34.890625 47.882812 34.523438 C 47.609375 33.613281 47.59375 32.648438 47.285156 31.75 C 47.039062 31.058594 46.328125 30.730469 45.722656 30.410156 C 45.292969 30.1875 44.808594 30.148438 44.34375 30.035156 C 43.9375 29.9375 43.550781 29.738281 43.125 29.730469 C 42.5625 29.714844 42.007812 29.617188 41.445312 29.597656 C 41.089844 29.589844 40.730469 29.496094 40.375 29.566406 C 39.816406 29.679688 39.246094 29.574219 38.6875 29.648438 C 38.074219 29.730469 37.453125 29.71875 36.839844 29.746094 C 36.867188 29.992188 36.984375 30.214844 37.070312 30.445312 C 37.28125 30.945312 37.21875 31.5 37.207031 32.027344 C 37.195312 32.472656 36.859375 32.859375 36.457031 33.019531 C 35.851562 33.246094 35.195312 33.308594 34.550781 33.257812 C 34.25 33.105469 34.136719 32.699219 34.351562 32.425781 C 34.828125 32.285156 35.332031 32.4375 35.804688 32.277344 C 35.996094 32.210938 36.257812 32.164062 36.324219 31.945312 C 36.398438 31.570312 36.375 31.175781 36.238281 30.820312 C 36.09375 30.433594 35.953125 30.039062 35.730469 29.691406 C 35.277344 29.566406 34.796875 29.496094 34.328125 29.421875 C 33.984375 29.34375 33.710938 29.609375 33.425781 29.746094 C 33.007812 29.941406 32.753906 30.375 32.648438 30.804688 C 32.492188 31.515625 32.949219 32.15625 33.359375 32.6875 C 33.8125 33.101562 34.269531 33.515625 34.769531 33.871094 C 35.148438 34.152344 35.632812 34.199219 36.078125 34.316406 C 36.765625 34.402344 37.460938 34.371094 38.148438 34.464844 C 39.207031 34.636719 40.300781 34.398438 41.351562 34.65625 C 41.824219 34.804688 42.285156 35.042969 42.640625 35.40625 C 43.191406 35.9375 43.683594 36.535156 44.054688 37.207031 C 44.242188 37.605469 44.371094 38.03125 44.492188 38.457031 C 44.578125 38.652344 44.398438 38.804688 44.296875 38.949219 C 44.101562 38.953125 43.898438 38.964844 43.734375 38.839844 C 43.457031 39.214844 42.984375 39.328125 42.566406 39.484375 C 42.429688 39.542969 42.226562 39.546875 42.179688 39.722656 C 42.671875 39.746094 43.164062 39.738281 43.65625 39.714844 C 44.574219 39.730469 45.492188 39.796875 46.410156 39.835938 C 46.566406 39.84375 46.683594 39.972656 46.769531 40.089844 C 46.90625 40.296875 46.765625 40.574219 46.578125 40.691406 C 45.992188 40.820312 45.398438 40.65625 44.808594 40.644531 C 44.292969 40.691406 43.78125 40.554688 43.265625 40.621094 C 42.609375 40.695312 41.953125 40.605469 41.300781 40.554688 C 40.117188 40.195312 38.851562 40.203125 37.691406 39.765625 C 37.074219 39.632812 36.433594 39.726562 35.824219 39.855469 C 35.273438 40.027344 34.722656 40.207031 34.164062 40.359375 C 33.890625 40.429688 33.617188 40.546875 33.421875 40.761719 C 33.046875 41.289062 33.078125 41.960938 33.03125 42.578125 C 33.078125 43.160156 33.074219 43.761719 33.277344 44.3125 C 33.40625 44.679688 33.464844 45.089844 33.730469 45.394531 C 34.035156 45.746094 34.316406 46.132812 34.707031 46.398438 C 34.882812 46.515625 35.0625 46.625 35.242188 46.734375 C 36.042969 46.359375 36.8125 45.890625 37.691406 45.71875 C 38.109375 45.589844 38.539062 45.503906 38.957031 45.378906 C 40.078125 44.90625 41.324219 45.042969 42.5 45.140625 C 42.71875 45.136719 42.917969 45.230469 43.109375 45.324219 C 43.148438 45.550781 43.214844 45.878906 42.941406 45.984375 C 42.53125 46.136719 42.089844 45.988281 41.667969 45.960938 C 40.867188 45.855469 40.023438 45.921875 39.273438 46.238281 C 38.691406 46.386719 38.113281 46.550781 37.53125 46.695312 C 37 46.828125 36.546875 47.140625 36.050781 47.359375 C 35.753906 47.492188 35.457031 47.675781 35.300781 47.96875 C 35.15625 48.261719 34.976562 48.570312 35.023438 48.914062 C 35.078125 49.347656 35.050781 49.808594 35.265625 50.207031 C 35.375 50.398438 35.390625 50.625 35.488281 50.820312 C 35.683594 51.015625 35.898438 51.199219 36.15625 51.300781 C 36.460938 51.417969 36.679688 51.664062 36.921875 51.863281 C 37.214844 51.855469 37.523438 51.917969 37.800781 51.796875 C 38.460938 51.492188 39.175781 51.246094 39.910156 51.277344 C 40.523438 51.289062 41.125 51.128906 41.738281 51.109375 C 42.246094 51.09375 42.722656 50.902344 43.230469 50.886719 C 42.601562 51.316406 41.953125 51.710938 41.28125 52.070312 C 40.347656 52.265625 39.3125 52 38.460938 52.527344 C 38.261719 52.746094 38.015625 52.902344 37.757812 53.050781 C 37.707031 53.277344 37.703125 53.515625 37.671875 53.75 C 37.390625 53.855469 37.105469 53.957031 36.820312 54.054688 C 36.832031 53.601562 36.925781 53.160156 36.902344 52.707031 C 36.632812 52.652344 36.382812 52.53125 36.203125 52.320312 C 35.972656 52.039062 35.527344 52.144531 35.3125 51.847656 C 35.09375 51.535156 34.714844 51.320312 34.625 50.929688 C 34.511719 50.433594 34.183594 49.996094 34.226562 49.464844 C 34.070312 49.140625 34.011719 48.769531 34.054688 48.410156 C 34.203125 48.0625 34.390625 47.730469 34.519531 47.378906 C 33.820312 46.945312 33.234375 46.332031 32.785156 45.644531 C 32.496094 45.230469 32.445312 44.714844 32.289062 44.246094 C 32.046875 43.570312 32.203125 42.835938 31.988281 42.152344 C 31.699219 41.117188 31.472656 40.058594 31.425781 38.984375 C 31.300781 37.886719 31.5625 36.722656 32.269531 35.855469 C 32.734375 35.277344 33.113281 34.613281 33.261719 33.878906 C 32.773438 33.410156 32.269531 32.929688 31.996094 32.296875 C 30.730469 32.867188 29.457031 33.433594 28.191406 34 C 27.949219 34.082031 28.03125 34.386719 27.949219 34.582031 C 27.8125 35.121094 27.410156 35.527344 27.113281 35.984375 C 26.90625 36.304688 26.589844 36.523438 26.335938 36.804688 C 25.824219 37.339844 25.460938 37.988281 25.074219 38.613281 C 24.734375 39.414062 24.5 40.257812 24.429688 41.128906 C 24.140625 41.257812 24.226562 41.597656 24.179688 41.855469 C 24.054688 42.460938 24.179688 43.082031 24.101562 43.695312 C 24.007812 43.871094 23.863281 44.015625 23.742188 44.175781 C 23.738281 44.453125 23.78125 44.734375 23.726562 45.007812 C 23.589844 45.351562 23.59375 45.730469 23.554688 46.09375 C 23.546875 47.011719 23.5625 47.933594 23.546875 48.851562 C 23.433594 49.507812 23.503906 50.175781 23.480469 50.835938 C 23.464844 51.191406 23.527344 51.546875 23.664062 51.875 C 23.761719 52.070312 23.921875 52.230469 24.007812 52.433594 C 24.089844 52.621094 24.054688 52.835938 24.113281 53.03125 C 24.203125 53.246094 24.335938 53.4375 24.414062 53.652344 C 24.527344 53.910156 24.445312 54.210938 24.574219 54.464844 C 24.699219 54.71875 24.65625 55.011719 24.644531 55.289062 C 24.371094 55.253906 24.09375 55.21875 23.824219 55.175781 C 23.816406 55.046875 23.8125 54.914062 23.808594 54.78125 C 23.519531 54.488281 23.777344 54.054688 23.550781 53.738281 C 23.484375 53.589844 23.386719 53.460938 23.304688 53.324219 C 23.238281 53.101562 23.273438 52.859375 23.191406 52.640625 C 23.105469 52.535156 23.003906 52.445312 22.917969 52.34375 C 22.851562 52.140625 22.824219 51.925781 22.75 51.722656 C 22.570312 51.246094 22.667969 50.730469 22.644531 50.234375 C 22.671875 49.777344 22.582031 49.304688 22.710938 48.855469 C 22.71875 48.371094 22.71875 47.882812 22.714844 47.398438 C 22.714844 46.867188 22.703125 46.339844 22.722656 45.808594 C 22.84375 45.492188 22.699219 45.132812 22.886719 44.835938 C 22.949219 44.574219 22.882812 44.296875 22.917969 44.027344 C 23.015625 43.824219 23.105469 43.609375 23.277344 43.453125 C 23.300781 42.957031 23.261719 42.460938 23.296875 41.964844 C 23.394531 41.707031 23.324219 41.425781 23.425781 41.171875 C 23.539062 40.761719 23.308594 40.253906 23.632812 39.90625 C 23.960938 39.546875 23.972656 39.03125 24.164062 38.609375 C 24.398438 38.261719 24.480469 37.847656 24.628906 37.464844 C 24.832031 37.203125 25.011719 36.925781 25.199219 36.652344 C 25.527344 36.269531 25.878906 35.90625 26.234375 35.550781 C 26.476562 35.238281 26.71875 34.914062 26.914062 34.570312 C 21.480469 37.011719 16.039062 39.441406 10.605469 41.878906 C 10.019531 42.15625 9.40625 42.382812 8.839844 42.691406 C 7.59375 39.933594 6.367188 37.167969 5.121094 34.410156 C 3.800781 31.429688 2.441406 28.464844 1.132812 25.480469 C 13.453125 19.960938 25.773438 14.445312 38.09375 8.925781 M 33.140625 15.542969 C 32.871094 15.691406 32.542969 15.730469 32.324219 15.960938 C 33.824219 19.230469 35.230469 22.542969 36.753906 25.796875 C 37.824219 25.257812 38.945312 24.8125 40.03125 24.300781 C 39.039062 22.136719 38.097656 19.953125 37.109375 17.789062 C 37.132812 17.761719 37.167969 17.714844 37.1875 17.691406 C 38.050781 17.324219 38.898438 16.921875 39.761719 16.554688 C 39.972656 16.480469 40.136719 16.289062 40.375 16.308594 C 41.324219 18.472656 42.300781 20.625 43.277344 22.777344 C 43.3125 22.78125 43.386719 22.796875 43.421875 22.804688 C 44.441406 22.273438 45.523438 21.878906 46.558594 21.378906 C 46.550781 21.058594 46.339844 20.785156 46.234375 20.492188 C 44.960938 17.679688 43.710938 14.859375 42.433594 12.050781 C 42.34375 11.867188 42.308594 11.648438 42.152344 11.5 C 39.144531 12.84375 36.144531 14.199219 33.140625 15.542969 M 19.15625 21.789062 C 19.667969 22.882812 20.136719 23.996094 20.660156 25.082031 C 21.304688 24.828125 21.925781 24.519531 22.5625 24.246094 C 25.148438 23.085938 27.738281 21.929688 30.328125 20.769531 C 30.402344 20.730469 30.542969 20.675781 30.496094 20.5625 C 30.007812 19.503906 29.519531 18.445312 29.050781 17.382812 C 25.753906 18.855469 22.457031 20.328125 19.15625 21.789062 M 31.277344 24.257812 C 29.90625 24.867188 28.542969 25.488281 27.175781 26.105469 C 25.515625 26.84375 23.855469 27.574219 22.203125 28.328125 C 22.121094 28.519531 22.261719 28.699219 22.339844 28.871094 C 22.765625 29.804688 23.164062 30.75 23.597656 31.679688 C 26.882812 30.203125 30.175781 28.734375 33.453125 27.242188 C 33.011719 26.164062 32.492188 25.121094 32.046875 24.042969 C 31.761719 23.933594 31.527344 24.171875 31.277344 24.257812 M 13.675781 24.476562 C 12.496094 24.792969 11.378906 25.304688 10.265625 25.800781 C 8.878906 26.429688 7.484375 27.042969 6.105469 27.679688 C 6.363281 28.386719 6.714844 29.054688 7.007812 29.75 C 8.171875 32.355469 9.339844 34.960938 10.5 37.566406 C 10.667969 37.445312 10.863281 37.375 11.054688 37.292969 C 12.398438 36.691406 13.753906 36.105469 15.09375 35.488281 C 15.054688 35.429688 15.023438 35.371094 14.992188 35.308594 C 14.4375 34.050781 13.867188 32.796875 13.308594 31.539062 C 14.476562 30.941406 15.746094 30.511719 16.789062 29.6875 C 17.265625 29.316406 17.765625 28.84375 17.839844 28.207031 C 17.859375 27.460938 17.472656 26.800781 17.1875 26.136719 C 16.898438 25.535156 16.625 24.847656 16.007812 24.507812 C 15.28125 24.125 14.429688 24.269531 13.675781 24.476562 M 33.339844 35.996094 C 33.191406 36.171875 33.113281 36.394531 32.957031 36.5625 C 32.550781 37.023438 32.476562 37.644531 32.324219 38.214844 C 32.316406 38.9375 32.453125 39.648438 32.542969 40.359375 C 32.785156 40.109375 33 39.824219 33.316406 39.664062 C 34.117188 39.421875 34.902344 39.117188 35.710938 38.894531 C 36.417969 38.824219 37.132812 38.710938 37.84375 38.808594 C 38.171875 38.910156 38.484375 39.074219 38.832031 39.089844 C 39.046875 39.09375 39.242188 39.191406 39.453125 39.210938 C 40.0625 39.085938 40.65625 38.875 41.28125 38.851562 C 41.652344 38.835938 41.992188 38.699219 42.34375 38.589844 C 42.664062 38.453125 43.042969 38.335938 43.214844 38 C 43.355469 37.734375 43.132812 37.46875 43.027344 37.230469 C 42.824219 37 42.621094 36.769531 42.457031 36.507812 C 42.078125 36.121094 41.671875 35.722656 41.136719 35.578125 C 40.507812 35.429688 39.859375 35.445312 39.222656 35.445312 C 38.503906 35.488281 37.789062 35.375 37.070312 35.332031 C 36.539062 35.304688 36.003906 35.253906 35.476562 35.164062 C 35.257812 35.066406 35.027344 35.011719 34.792969 34.976562 C 34.550781 34.851562 34.332031 34.683594 34.089844 34.554688 C 33.90625 35.066406 33.683594 35.574219 33.339844 35.996094 M 11.417969 27.328125 C 11.902344 27.164062 12.457031 26.792969 12.953125 27.097656 C 13.210938 27.480469 13.378906 27.910156 13.574219 28.320312 C 13.675781 28.574219 13.753906 28.882812 13.625 29.140625 C 13.355469 29.484375 12.929688 29.636719 12.542969 29.808594 C 12.148438 28.992188 11.792969 28.15625 11.417969 27.328125 Z M 11.417969 27.328125 "/>
<path style=" stroke:none;fill-rule:nonzero;fill:rgb(100%,100%,100%);fill-opacity:1;" d="M 17.164062 2.167969 C 22.519531 -0.101562 28.59375 -0.582031 34.261719 0.695312 C 36.9375 1.292969 39.507812 2.320312 41.886719 3.675781 C 44.050781 4.917969 46.0625 6.433594 47.808594 8.214844 C 49.597656 9.972656 51.113281 11.996094 52.355469 14.167969 C 53.726562 16.585938 54.757812 19.207031 55.347656 21.925781 C 56.667969 27.972656 55.984375 34.46875 53.285156 40.046875 C 50.949219 44.960938 47.148438 49.160156 42.492188 51.964844 C 40.101562 53.40625 37.5 54.511719 34.789062 55.179688 C 28.730469 56.671875 22.164062 56.132812 16.484375 53.53125 C 11.585938 51.328125 7.351562 47.679688 4.449219 43.160156 C 2.871094 40.695312 1.652344 37.992188 0.914062 35.15625 C -0.433594 29.984375 -0.292969 24.425781 1.355469 19.339844 C 2.890625 14.640625 5.683594 10.355469 9.382812 7.078125 C 11.679688 5.019531 14.328125 3.371094 17.164062 2.167969 M 38.09375 8.925781 C 25.773438 14.445312 13.453125 19.960938 1.132812 25.480469 C 2.441406 28.464844 3.800781 31.429688 5.121094 34.410156 C 6.367188 37.167969 7.59375 39.933594 8.839844 42.691406 C 9.40625 42.382812 10.019531 42.15625 10.605469 41.878906 C 16.039062 39.441406 21.480469 37.011719 26.914062 34.570312 C 26.71875 34.914062 26.476562 35.238281 26.234375 35.550781 C 25.878906 35.90625 25.527344 36.269531 25.199219 36.652344 C 25.011719 36.925781 24.832031 37.203125 24.628906 37.464844 C 24.480469 37.847656 24.398438 38.261719 24.164062 38.609375 C 23.972656 39.03125 23.960938 39.546875 23.632812 39.90625 C 23.308594 40.253906 23.539062 40.757812 23.425781 41.171875 C 23.324219 41.425781 23.394531 41.707031 23.296875 41.964844 C 23.261719 42.460938 23.300781 42.957031 23.277344 43.453125 C 23.105469 43.609375 23.015625 43.824219 22.917969 44.027344 C 22.882812 44.296875 22.949219 44.574219 22.886719 44.835938 C 22.699219 45.132812 22.84375 45.492188 22.722656 45.808594 C 22.703125 46.339844 22.714844 46.867188 22.714844 47.398438 C 22.71875 47.882812 22.71875 48.371094 22.710938 48.855469 C 22.582031 49.304688 22.671875 49.777344 22.644531 50.234375 C 22.667969 50.730469 22.570312 51.246094 22.75 51.722656 C 22.824219 51.925781 22.851562 52.140625 22.917969 52.34375 C 23.003906 52.445312 23.105469 52.535156 23.191406 52.640625 C 23.273438 52.859375 23.238281 53.101562 23.304688 53.324219 C 23.386719 53.460938 23.484375 53.589844 23.550781 53.738281 C 23.777344 54.054688 23.519531 54.488281 23.808594 54.78125 C 23.8125 54.914062 23.816406 55.042969 23.824219 55.175781 C 24.09375 55.21875 24.371094 55.253906 24.644531 55.289062 C 28.726562 55.785156 32.921875 55.371094 36.820312 54.054688 C 37.105469 53.957031 37.390625 53.855469 37.671875 53.75 C 38.910156 53.273438 40.125 52.722656 41.28125 52.070312 C 41.953125 51.710938 42.601562 51.316406 43.230469 50.886719 C 45.84375 49.167969 48.140625 46.96875 50.023438 44.46875 C 50.269531 44.117188 50.542969 43.777344 50.765625 43.410156 C 50.800781 43.023438 50.671875 42.644531 50.574219 42.277344 C 50.40625 41.519531 50.179688 40.773438 49.949219 40.035156 C 49.808594 39.441406 49.519531 38.902344 49.289062 38.339844 C 49.160156 37.816406 48.808594 37.378906 48.707031 36.847656 C 48.648438 36.625 48.703125 36.398438 48.722656 36.175781 L 48.679688 36.214844 C 48.691406 35.777344 48.75 35.34375 48.867188 34.921875 C 48.886719 34.34375 48.585938 33.820312 48.554688 33.246094 C 48.542969 32.910156 48.417969 32.589844 48.382812 32.257812 C 48.296875 31.621094 48.085938 30.972656 47.597656 30.53125 C 46.972656 29.988281 46.246094 29.546875 45.449219 29.304688 C 44.8125 29.226562 44.207031 28.984375 43.585938 28.828125 C 43.433594 28.785156 43.269531 28.785156 43.117188 28.8125 C 42.113281 28.78125 41.117188 28.570312 40.113281 28.617188 C 40.261719 28.578125 40.410156 28.539062 40.550781 28.46875 C 44.230469 26.808594 47.917969 25.175781 51.59375 23.511719 C 51.246094 22.835938 50.96875 22.128906 50.644531 21.441406 C 48.390625 16.40625 46.132812 11.375 43.882812 6.34375 C 41.945312 7.1875 40.023438 8.066406 38.09375 8.925781 M 33.140625 15.542969 C 36.144531 14.199219 39.144531 12.84375 42.152344 11.5 C 42.308594 11.644531 42.34375 11.863281 42.433594 12.050781 C 43.710938 14.859375 44.960938 17.679688 46.234375 20.492188 C 46.339844 20.785156 46.550781 21.058594 46.558594 21.378906 C 45.523438 21.878906 44.441406 22.273438 43.421875 22.804688 C 43.386719 22.796875 43.3125 22.78125 43.277344 22.773438 C 42.300781 20.625 41.324219 18.472656 40.375 16.308594 C 40.136719 16.289062 39.972656 16.480469 39.761719 16.554688 C 38.898438 16.921875 38.050781 17.324219 37.1875 17.691406 C 37.167969 17.714844 37.132812 17.761719 37.109375 17.789062 C 38.097656 19.953125 39.039062 22.136719 40.03125 24.300781 C 38.945312 24.8125 37.824219 25.257812 36.753906 25.796875 C 35.230469 22.542969 33.824219 19.230469 32.324219 15.960938 C 32.542969 15.730469 32.871094 15.691406 33.140625 15.542969 M 19.15625 21.789062 C 22.457031 20.328125 25.753906 18.855469 29.046875 17.382812 C 29.519531 18.445312 30.007812 19.503906 30.496094 20.5625 C 30.542969 20.671875 30.402344 20.730469 30.328125 20.769531 C 27.738281 21.929688 25.148438 23.085938 22.5625 24.246094 C 21.925781 24.519531 21.304688 24.828125 20.660156 25.082031 C 20.136719 23.996094 19.667969 22.882812 19.15625 21.789062 M 31.277344 24.257812 C 31.527344 24.171875 31.761719 23.933594 32.046875 24.042969 C 32.492188 25.121094 33.011719 26.164062 33.453125 27.238281 C 30.175781 28.734375 26.882812 30.203125 23.597656 31.679688 C 23.164062 30.75 22.765625 29.804688 22.339844 28.871094 C 22.261719 28.699219 22.121094 28.519531 22.203125 28.324219 C 23.855469 27.574219 25.515625 26.839844 27.175781 26.105469 C 28.542969 25.488281 29.90625 24.867188 31.277344 24.257812 M 13.675781 24.476562 C 14.429688 24.269531 15.28125 24.125 16.007812 24.507812 C 16.625 24.847656 16.898438 25.535156 17.1875 26.136719 C 17.472656 26.800781 17.859375 27.460938 17.839844 28.207031 C 17.765625 28.84375 17.265625 29.316406 16.789062 29.6875 C 15.746094 30.511719 14.476562 30.941406 13.308594 31.539062 C 13.867188 32.796875 14.4375 34.050781 14.992188 35.308594 C 15.023438 35.371094 15.054688 35.429688 15.09375 35.488281 C 13.753906 36.105469 12.398438 36.691406 11.054688 37.292969 C 10.863281 37.375 10.667969 37.445312 10.5 37.566406 C 9.339844 34.960938 8.171875 32.355469 7.007812 29.75 C 6.714844 29.054688 6.363281 28.386719 6.105469 27.679688 C 7.484375 27.042969 8.878906 26.429688 10.265625 25.800781 C 11.378906 25.304688 12.496094 24.792969 13.675781 24.476562 M 11.417969 27.328125 C 11.789062 28.15625 12.148438 28.992188 12.542969 29.804688 C 12.929688 29.636719 13.355469 29.484375 13.625 29.140625 C 13.753906 28.882812 13.675781 28.574219 13.574219 28.320312 C 13.378906 27.910156 13.210938 27.480469 12.953125 27.097656 C 12.457031 26.792969 11.898438 27.164062 11.417969 27.328125 M 33.339844 35.996094 C 33.683594 35.570312 33.90625 35.066406 34.089844 34.554688 C 34.332031 34.683594 34.550781 34.851562 34.792969 34.976562 C 35.027344 35.011719 35.257812 35.066406 35.476562 35.164062 C 36.003906 35.253906 36.539062 35.304688 37.070312 35.332031 C 37.789062 35.375 38.503906 35.488281 39.222656 35.445312 C 39.859375 35.445312 40.507812 35.429688 41.136719 35.574219 C 41.671875 35.722656 42.078125 36.121094 42.457031 36.507812 C 42.621094 36.769531 42.824219 37 43.027344 37.230469 C 43.132812 37.46875 43.355469 37.734375 43.214844 38 C 43.042969 38.335938 42.664062 38.453125 42.34375 38.589844 C 41.992188 38.699219 41.652344 38.835938 41.28125 38.851562 C 40.65625 38.875 40.0625 39.085938 39.453125 39.210938 C 39.242188 39.191406 39.046875 39.09375 38.832031 39.089844 C 38.484375 39.074219 38.171875 38.90625 37.84375 38.808594 C 37.132812 38.710938 36.417969 38.824219 35.710938 38.894531 C 34.902344 39.117188 34.117188 39.421875 33.316406 39.664062 C 33 39.824219 32.785156 40.109375 32.542969 40.359375 C 32.453125 39.648438 32.316406 38.9375 32.324219 38.214844 C 32.476562 37.644531 32.550781 37.019531 32.957031 36.5625 C 33.113281 36.394531 33.191406 36.171875 33.339844 35.996094 Z M 33.339844 35.996094 "/>
<path style=" stroke:none;fill-rule:nonzero;fill:rgb(32.54902%,50.196078%,9.411765%);fill-opacity:1;" d="M 33.425781 29.746094 C 33.710938 29.609375 33.984375 29.34375 34.328125 29.421875 C 34.796875 29.496094 35.277344 29.566406 35.730469 29.691406 C 35.953125 30.039062 36.09375 30.433594 36.238281 30.820312 C 36.375 31.175781 36.398438 31.570312 36.324219 31.945312 C 36.257812 32.164062 35.996094 32.210938 35.804688 32.277344 C 35.332031 32.4375 34.828125 32.285156 34.351562 32.425781 C 34.136719 32.699219 34.25 33.105469 34.550781 33.257812 C 35.195312 33.308594 35.851562 33.246094 36.457031 33.019531 C 36.859375 32.859375 37.195312 32.472656 37.207031 32.027344 C 37.21875 31.5 37.28125 30.945312 37.070312 30.445312 C 36.984375 30.214844 36.867188 29.992188 36.839844 29.746094 C 37.453125 29.71875 38.074219 29.730469 38.6875 29.648438 C 39.246094 29.574219 39.816406 29.679688 40.375 29.566406 C 40.730469 29.496094 41.089844 29.589844 41.445312 29.597656 C 42.007812 29.617188 42.5625 29.714844 43.125 29.730469 C 43.550781 29.738281 43.9375 29.9375 44.34375 30.035156 C 44.808594 30.148438 45.292969 30.1875 45.722656 30.410156 C 46.328125 30.730469 47.039062 31.058594 47.285156 31.75 C 47.59375 32.648438 47.609375 33.613281 47.882812 34.523438 C 48.007812 34.890625 47.824219 35.257812 47.773438 35.617188 C 47.757812 35.972656 47.757812 36.328125 47.746094 36.683594 C 47.738281 37.339844 48.164062 37.878906 48.347656 38.484375 C 48.511719 39.03125 48.8125 39.527344 48.984375 40.070312 C 49.257812 40.984375 49.550781 41.890625 49.742188 42.824219 C 49.921875 43.355469 49.886719 43.925781 50.023438 44.46875 C 48.140625 46.96875 45.84375 49.167969 43.230469 50.886719 C 42.722656 50.902344 42.242188 51.09375 41.738281 51.109375 C 41.125 51.125 40.523438 51.289062 39.910156 51.277344 C 39.175781 51.246094 38.460938 51.492188 37.800781 51.796875 C 37.523438 51.917969 37.214844 51.855469 36.921875 51.863281 C 36.679688 51.664062 36.460938 51.414062 36.15625 51.300781 C 35.898438 51.199219 35.679688 51.015625 35.488281 50.820312 C 35.390625 50.625 35.375 50.398438 35.265625 50.207031 C 35.050781 49.808594 35.078125 49.347656 35.023438 48.914062 C 34.976562 48.570312 35.15625 48.261719 35.300781 47.96875 C 35.457031 47.675781 35.753906 47.492188 36.050781 47.359375 C 36.546875 47.140625 37 46.828125 37.53125 46.695312 C 38.113281 46.550781 38.691406 46.386719 39.273438 46.238281 C 40.023438 45.921875 40.867188 45.855469 41.667969 45.960938 C 42.089844 45.988281 42.53125 46.136719 42.941406 45.984375 C 43.214844 45.878906 43.148438 45.550781 43.109375 45.324219 C 42.917969 45.230469 42.71875 45.136719 42.5 45.140625 C 41.324219 45.042969 40.078125 44.90625 38.957031 45.378906 C 38.539062 45.503906 38.109375 45.589844 37.691406 45.71875 C 36.8125 45.890625 36.042969 46.359375 35.242188 46.734375 C 35.0625 46.625 34.882812 46.515625 34.707031 46.398438 C 34.316406 46.132812 34.035156 45.746094 33.730469 45.394531 C 33.464844 45.089844 33.40625 44.679688 33.277344 44.3125 C 33.074219 43.761719 33.078125 43.160156 33.03125 42.578125 C 33.078125 41.960938 33.046875 41.289062 33.421875 40.761719 C 33.617188 40.546875 33.890625 40.429688 34.164062 40.359375 C 34.722656 40.207031 35.273438 40.027344 35.824219 39.855469 C 36.433594 39.726562 37.074219 39.632812 37.691406 39.765625 C 38.851562 40.203125 40.117188 40.195312 41.300781 40.554688 C 41.953125 40.605469 42.609375 40.695312 43.265625 40.621094 C 43.78125 40.554688 44.292969 40.691406 44.808594 40.644531 C 45.398438 40.65625 45.992188 40.820312 46.578125 40.691406 C 46.765625 40.574219 46.90625 40.296875 46.769531 40.089844 C 46.683594 39.972656 46.566406 39.84375 46.410156 39.835938 C 45.492188 39.796875 44.574219 39.730469 43.65625 39.714844 C 43.164062 39.738281 42.671875 39.742188 42.179688 39.722656 C 42.226562 39.546875 42.429688 39.542969 42.566406 39.484375 C 42.984375 39.328125 43.457031 39.214844 43.734375 38.839844 C 43.898438 38.964844 44.101562 38.953125 44.296875 38.949219 C 44.398438 38.804688 44.578125 38.652344 44.492188 38.457031 C 44.371094 38.03125 44.242188 37.605469 44.054688 37.207031 C 43.683594 36.535156 43.191406 35.9375 42.640625 35.40625 C 42.285156 35.042969 41.824219 34.804688 41.351562 34.65625 C 40.300781 34.398438 39.207031 34.636719 38.148438 34.464844 C 37.460938 34.371094 36.765625 34.402344 36.078125 34.316406 C 35.632812 34.199219 35.148438 34.152344 34.769531 33.871094 C 34.269531 33.515625 33.8125 33.101562 33.359375 32.6875 C 32.949219 32.15625 32.492188 31.515625 32.648438 30.804688 C 32.753906 30.375 33.007812 29.941406 33.425781 29.746094 M 28.191406 34 C 29.457031 33.433594 30.730469 32.867188 31.996094 32.296875 C 32.269531 32.929688 32.773438 33.410156 33.261719 33.878906 C 33.113281 34.613281 32.734375 35.277344 32.269531 35.855469 C 31.5625 36.722656 31.300781 37.886719 31.425781 38.980469 C 31.472656 40.058594 31.699219 41.117188 31.988281 42.152344 C 32.203125 42.835938 32.046875 43.570312 32.289062 44.246094 C 32.445312 44.714844 32.496094 45.230469 32.785156 45.644531 C 33.234375 46.332031 33.820312 46.945312 34.519531 47.378906 C 34.390625 47.730469 34.203125 48.0625 34.054688 48.410156 C 34.011719 48.769531 34.070312 49.140625 34.226562 49.464844 C 34.183594 49.996094 34.511719 50.433594 34.625 50.929688 C 34.714844 51.320312 35.09375 51.535156 35.3125 51.847656 C 35.527344 52.144531 35.972656 52.039062 36.203125 52.320312 C 36.382812 52.53125 36.632812 52.652344 36.902344 52.707031 C 36.925781 53.160156 36.832031 53.601562 36.820312 54.054688 C 32.921875 55.371094 28.726562 55.785156 24.644531 55.289062 C 24.65625 55.011719 24.699219 54.71875 24.574219 54.460938 C 24.441406 54.210938 24.527344 53.910156 24.414062 53.652344 C 24.332031 53.4375 24.203125 53.246094 24.113281 53.03125 C 24.054688 52.835938 24.089844 52.621094 24.007812 52.433594 C 23.921875 52.230469 23.761719 52.070312 23.664062 51.875 C 23.527344 51.546875 23.464844 51.191406 23.480469 50.835938 C 23.5 50.175781 23.433594 49.507812 23.546875 48.851562 C 23.5625 47.933594 23.546875 47.011719 23.554688 46.09375 C 23.59375 45.730469 23.589844 45.351562 23.726562 45.007812 C 23.78125 44.734375 23.738281 44.453125 23.742188 44.175781 C 23.863281 44.015625 24.007812 43.871094 24.101562 43.695312 C 24.179688 43.082031 24.054688 42.460938 24.179688 41.855469 C 24.226562 41.597656 24.140625 41.257812 24.429688 41.128906 C 24.5 40.257812 24.734375 39.414062 25.074219 38.613281 C 25.460938 37.988281 25.824219 37.339844 26.335938 36.804688 C 26.589844 36.523438 26.90625 36.304688 27.113281 35.984375 C 27.410156 35.527344 27.8125 35.121094 27.949219 34.582031 C 28.03125 34.386719 27.949219 34.082031 28.191406 34 M 38.460938 52.527344 C 39.3125 52 40.347656 52.265625 41.28125 52.070312 C 40.125 52.722656 38.910156 53.273438 37.671875 53.75 C 37.703125 53.515625 37.707031 53.277344 37.757812 53.046875 C 38.015625 52.902344 38.261719 52.746094 38.460938 52.527344 Z M 38.460938 52.527344 "/>
</g>
</svg>
