<?xml version="1.0" encoding="UTF-8"?>
<svg xmlns="http://www.w3.org/2000/svg" xmlns:xlink="http://www.w3.org/1999/xlink" width="56px" height="56px" viewBox="0 0 56 56" version="1.1">
<g id="surface1">
<path style=" stroke:none;fill-rule:nonzero;fill:rgb(0%,0%,0%);fill-opacity:1;" d="M 28.839844 6.011719 C 28.953125 6.128906 28.976562 6.300781 29.011719 6.453125 C 29.019531 6.546875 29.03125 6.640625 29.039062 6.734375 C 29.480469 6.929688 29.886719 7.199219 30.214844 7.554688 C 30.722656 7.371094 31.265625 7.277344 31.804688 7.304688 C 32.128906 7.320312 32.46875 7.199219 32.769531 7.351562 C 32.832031 7.464844 32.953125 7.503906 33.0625 7.558594 C 33.355469 7.742188 33.597656 7.992188 33.863281 8.210938 C 33.898438 8.21875 33.96875 8.234375 34.003906 8.238281 C 34.09375 8.441406 34.144531 8.65625 34.136719 8.878906 C 34.121094 9.140625 34.324219 9.335938 34.414062 9.566406 C 34.441406 9.683594 34.441406 9.800781 34.441406 9.921875 C 34.308594 9.941406 34.171875 9.945312 34.054688 10.011719 C 33.925781 10.152344 33.984375 10.355469 33.972656 10.527344 C 34.027344 10.640625 34.082031 10.753906 34.144531 10.867188 C 34.484375 10.851562 34.835938 10.769531 35.164062 10.882812 C 35.636719 11.035156 36.136719 11.242188 36.417969 11.675781 C 36.5625 12.027344 36.65625 12.398438 36.710938 12.773438 C 36.714844 13.269531 36.433594 13.714844 36.144531 14.097656 C 35.898438 14.316406 35.597656 14.472656 35.296875 14.609375 C 35.261719 14.628906 35.191406 14.667969 35.15625 14.6875 C 35.082031 14.914062 35.042969 15.144531 35.039062 15.382812 C 34.980469 15.519531 34.988281 15.664062 34.980469 15.808594 L 34.71875 15.808594 C 34.722656 15.769531 34.734375 15.695312 34.742188 15.65625 C 34.816406 15.269531 34.886719 14.875 34.867188 14.480469 C 35.246094 14.394531 35.609375 14.242188 35.914062 14.007812 C 36.128906 13.816406 36.257812 13.546875 36.375 13.289062 C 36.558594 12.851562 36.390625 12.375 36.269531 11.945312 C 36.179688 11.585938 35.804688 11.429688 35.511719 11.265625 C 35.140625 11.058594 34.695312 11.050781 34.28125 11.113281 C 33.8125 11.226562 33.4375 11.597656 33.226562 12.019531 C 32.867188 11.933594 32.507812 11.863281 32.144531 11.8125 C 31.675781 11.742188 31.257812 11.503906 30.855469 11.261719 C 31.140625 11.714844 31.433594 12.230469 31.980469 12.394531 C 31.996094 12.441406 32.03125 12.53125 32.046875 12.574219 C 31.871094 12.546875 31.683594 12.53125 31.53125 12.433594 C 31.128906 12.195312 30.925781 11.757812 30.648438 11.402344 C 30.445312 11.148438 30.320312 10.785156 30.546875 10.507812 C 30.476562 10.242188 30.375 9.921875 30.5625 9.679688 C 30.839844 9.320312 31.328125 9.253906 31.746094 9.1875 C 32.265625 9.140625 32.816406 9.082031 33.3125 9.28125 C 33.652344 9.390625 33.941406 9.605469 34.253906 9.773438 C 34.191406 9.550781 34.074219 9.332031 33.871094 9.207031 C 33.582031 9.042969 33.242188 9.003906 32.925781 8.921875 C 32.367188 8.78125 31.785156 8.882812 31.246094 9.042969 C 31.003906 9.109375 30.824219 9.316406 30.574219 9.359375 C 30.621094 9.222656 30.664062 9.054688 30.8125 8.988281 C 31.214844 8.789062 31.667969 8.710938 32.109375 8.644531 C 32.726562 8.558594 33.3125 8.824219 33.910156 8.921875 C 33.898438 8.761719 33.886719 8.605469 33.878906 8.449219 C 33.519531 8.171875 33.214844 7.8125 32.785156 7.636719 C 32.347656 7.574219 31.902344 7.511719 31.457031 7.5625 C 31.074219 7.601562 30.679688 7.601562 30.316406 7.742188 C 30.332031 8.003906 30.328125 8.269531 30.332031 8.53125 C 30.332031 8.769531 30.460938 8.980469 30.53125 9.199219 C 30.308594 9.195312 30.214844 8.972656 30.058594 8.847656 C 29.640625 8.53125 29.277344 8.128906 28.773438 7.945312 C 27.914062 7.621094 26.953125 7.570312 26.066406 7.808594 C 25.628906 8.003906 25.28125 8.347656 24.933594 8.664062 C 24.996094 8.71875 25.058594 8.773438 25.121094 8.828125 C 25.246094 8.933594 25.371094 9.042969 25.496094 9.152344 C 26.0625 8.824219 26.734375 8.765625 27.375 8.773438 C 27.375 8.59375 27.375 8.410156 27.375 8.230469 C 26.945312 8.210938 26.515625 8.269531 26.097656 8.363281 C 25.761719 8.429688 25.492188 8.652344 25.15625 8.71875 C 25.167969 8.671875 25.191406 8.585938 25.203125 8.539062 C 25.765625 8.144531 26.484375 8.070312 27.148438 8.015625 C 27.636719 7.972656 28.105469 8.144531 28.585938 8.171875 C 29.007812 8.21875 29.441406 8.382812 29.714844 8.71875 C 29.898438 8.945312 30.054688 9.195312 30.21875 9.4375 C 30.324219 9.574219 30.335938 9.753906 30.351562 9.917969 C 30.183594 10.105469 29.933594 10.234375 29.675781 10.179688 C 29.324219 10.066406 29.15625 9.695312 28.855469 9.503906 C 28.601562 9.371094 28.316406 9.3125 28.046875 9.21875 C 27.664062 9.105469 27.28125 8.9375 26.871094 8.976562 C 26.433594 9.019531 26 9.109375 25.601562 9.304688 C 25.601562 9.417969 25.597656 9.53125 25.59375 9.644531 C 26.074219 9.441406 26.542969 9.140625 27.085938 9.144531 C 27.511719 9.128906 27.902344 9.335938 28.296875 9.464844 C 28.640625 9.601562 29.023438 9.691406 29.292969 9.96875 C 29.253906 9.996094 29.179688 10.046875 29.144531 10.074219 C 28.550781 9.839844 27.984375 9.519531 27.355469 9.402344 C 26.695312 9.308594 26.046875 9.605469 25.550781 10.015625 C 25.394531 10.25 25.328125 10.554688 25.046875 10.683594 C 25.066406 10.21875 25.511719 9.792969 25.292969 9.308594 C 24.992188 8.878906 24.480469 8.640625 24.003906 8.460938 C 23.234375 8.308594 22.433594 8.457031 21.703125 8.714844 C 21.441406 8.796875 21.3125 9.058594 21.207031 9.292969 C 21.03125 9.707031 20.921875 10.167969 20.988281 10.617188 C 21.039062 10.9375 21.460938 11.015625 21.476562 11.351562 C 21.105469 11.265625 20.796875 10.960938 20.753906 10.574219 C 20.699219 10.058594 20.847656 9.542969 21.042969 9.070312 C 21.191406 8.695312 21.5625 8.46875 21.945312 8.390625 C 22.617188 8.25 23.308594 8.0625 23.996094 8.222656 C 24.253906 8.277344 24.484375 8.433594 24.746094 8.46875 C 25.242188 8.148438 25.640625 7.617188 26.261719 7.53125 C 26.695312 7.484375 27.128906 7.371094 27.566406 7.441406 C 28.085938 7.515625 28.617188 7.597656 29.09375 7.828125 C 29.46875 8.011719 29.753906 8.328125 30.09375 8.574219 C 30.085938 8.238281 30.132812 7.847656 29.882812 7.582031 C 29.4375 7.089844 28.777344 6.867188 28.148438 6.722656 C 27.207031 6.558594 26.1875 6.589844 25.332031 7.046875 C 25.085938 7.152344 25.007812 7.425781 24.894531 7.644531 C 24.65625 7.453125 24.875 7.128906 25.042969 6.96875 C 25.628906 6.542969 26.378906 6.4375 27.085938 6.394531 C 27.660156 6.382812 28.226562 6.519531 28.792969 6.609375 C 28.820312 6.410156 28.839844 6.210938 28.839844 6.011719 M 27.5625 8.40625 C 27.613281 8.480469 27.640625 8.570312 27.667969 8.65625 C 27.785156 8.613281 27.90625 8.558594 27.960938 8.4375 C 27.898438 8.382812 27.835938 8.335938 27.773438 8.289062 C 27.722656 8.359375 27.644531 8.390625 27.5625 8.40625 M 28.191406 8.539062 C 28.191406 8.636719 28.191406 8.738281 28.195312 8.835938 C 28.273438 8.84375 28.351562 8.851562 28.429688 8.863281 C 28.417969 8.789062 28.410156 8.714844 28.402344 8.640625 C 28.332031 8.605469 28.261719 8.574219 28.191406 8.539062 M 28.660156 8.539062 C 28.714844 8.675781 28.761719 8.8125 28.808594 8.949219 C 28.859375 8.828125 28.972656 8.710938 28.949219 8.570312 C 28.871094 8.515625 28.753906 8.554688 28.660156 8.539062 M 29.117188 8.601562 C 29.105469 8.851562 28.980469 9.09375 29.03125 9.347656 C 29.269531 9.523438 29.441406 9.765625 29.675781 9.941406 C 29.824219 9.949219 29.972656 9.945312 30.121094 9.945312 C 30.125 9.875 30.125 9.738281 30.128906 9.667969 C 30.003906 9.535156 29.929688 9.359375 29.789062 9.238281 C 29.746094 8.980469 29.484375 8.855469 29.347656 8.65625 C 29.269531 8.636719 29.191406 8.621094 29.117188 8.601562 M 32.859375 9.371094 C 32.859375 9.507812 32.953125 9.707031 33.09375 9.519531 C 33.144531 9.574219 33.195312 9.632812 33.25 9.6875 C 33.335938 9.710938 33.421875 9.734375 33.507812 9.753906 C 33.488281 9.679688 33.558594 9.523438 33.429688 9.527344 C 33.222656 9.527344 33.074219 9.347656 32.859375 9.371094 M 30.941406 9.625 C 30.9375 9.757812 30.960938 9.886719 31.027344 10.003906 C 31.222656 10.003906 31.417969 10.019531 31.613281 10.027344 C 31.765625 10.0625 31.9375 10.070312 32.066406 10.179688 C 32.195312 10.292969 32.371094 10.296875 32.527344 10.34375 C 32.472656 10.214844 32.449219 10.054688 32.320312 9.972656 C 32.269531 9.773438 32.292969 9.566406 32.34375 9.371094 C 32.054688 9.382812 31.753906 9.347656 31.472656 9.433594 C 31.285156 9.464844 31.105469 9.527344 30.941406 9.625 M 30.652344 9.8125 C 30.644531 9.957031 30.640625 10.101562 30.640625 10.246094 C 30.722656 10.195312 30.847656 10.179688 30.898438 10.09375 C 30.875 9.960938 30.777344 9.855469 30.652344 9.8125 M 32.9375 9.84375 C 32.9375 9.886719 32.941406 9.972656 32.941406 10.015625 C 33.03125 10.015625 33.121094 10.015625 33.210938 10.015625 C 33.210938 9.972656 33.210938 9.882812 33.210938 9.839844 C 33.121094 9.839844 33.027344 9.84375 32.9375 9.84375 M 30.640625 10.496094 C 30.683594 10.683594 30.769531 10.867188 30.925781 10.988281 C 31.523438 11.523438 32.351562 11.679688 33.128906 11.707031 C 33.25 11.558594 33.375 11.410156 33.496094 11.261719 C 33.410156 11.195312 33.328125 11.128906 33.246094 11.0625 C 33.421875 10.941406 33.636719 10.988281 33.832031 11.03125 C 33.828125 10.933594 33.871094 10.808594 33.773438 10.742188 C 33.601562 10.558594 33.324219 10.664062 33.109375 10.601562 C 32.710938 10.503906 32.253906 10.605469 31.90625 10.355469 C 31.726562 10.207031 31.476562 10.25 31.257812 10.246094 C 31.023438 10.238281 30.851562 10.421875 30.640625 10.496094 M 25.882812 9.894531 C 26.164062 10.085938 26.355469 10.394531 26.679688 10.523438 C 27.28125 10.777344 27.949219 10.792969 28.585938 10.742188 C 28.875 10.734375 29.128906 10.582031 29.40625 10.523438 C 29.40625 10.566406 29.402344 10.65625 29.398438 10.703125 C 28.917969 11.097656 28.351562 11.371094 27.757812 11.550781 C 27.453125 11.628906 27.105469 11.710938 26.820312 11.539062 C 26.753906 11.5 26.734375 11.445312 26.765625 11.371094 C 27.035156 11.332031 27.308594 11.417969 27.578125 11.363281 C 27.867188 11.300781 28.160156 11.214844 28.394531 11.03125 C 27.550781 11.003906 26.574219 10.960938 25.976562 10.269531 C 25.847656 10.183594 25.855469 10.03125 25.882812 9.894531 M 21.878906 10.492188 C 22.089844 10.3125 22.355469 10.175781 22.636719 10.1875 C 23.0625 10.171875 23.464844 10.320312 23.878906 10.382812 C 23.910156 10.460938 23.941406 10.542969 23.972656 10.621094 C 24.84375 11.140625 25.734375 11.617188 26.644531 12.054688 C 26.980469 12.238281 27.339844 12.371094 27.699219 12.507812 C 28.773438 12.984375 29.945312 13.226562 31.117188 13.261719 C 31.917969 13.308594 32.679688 12.960938 33.480469 13.011719 C 33.484375 12.921875 33.488281 12.835938 33.492188 12.75 C 33.609375 12.71875 33.707031 12.765625 33.769531 12.867188 C 33.988281 13.160156 34.296875 13.371094 34.628906 13.511719 C 34.890625 13.628906 35.164062 13.398438 35.421875 13.457031 C 35.472656 13.617188 35.308594 13.652344 35.195312 13.691406 C 34.859375 13.796875 34.484375 13.730469 34.1875 13.539062 C 33.714844 14.160156 33.042969 14.628906 32.28125 14.800781 C 31.125 15.105469 29.9375 14.816406 28.800781 14.574219 C 27.667969 14.25 26.515625 13.980469 25.417969 13.542969 C 24.984375 13.375 24.605469 13.101562 24.269531 12.78125 C 23.582031 12.117188 22.972656 11.355469 22.582031 10.476562 C 22.394531 10.445312 22.21875 10.5 22.070312 10.621094 C 22.007812 10.578125 21.945312 10.535156 21.878906 10.492188 M 22.785156 10.480469 C 23.332031 11.375 23.921875 12.269531 24.773438 12.902344 C 25.214844 13.257812 25.753906 13.457031 26.289062 13.621094 C 26.886719 13.828125 27.5 13.992188 28.109375 14.15625 C 28.972656 14.347656 29.824219 14.648438 30.714844 14.667969 C 30.941406 14.683594 31.167969 14.753906 31.394531 14.714844 C 31.714844 14.652344 32.050781 14.6875 32.359375 14.5625 C 32.90625 14.382812 33.476562 14.113281 33.804688 13.617188 C 33.074219 13.789062 32.332031 13.90625 31.59375 14.027344 C 31.273438 14.035156 30.957031 14.136719 30.636719 14.097656 C 29.769531 13.988281 28.929688 13.746094 28.089844 13.527344 C 27.351562 13.332031 26.636719 13.070312 25.90625 12.859375 C 25.453125 12.707031 25.007812 12.53125 24.582031 12.316406 C 23.898438 11.933594 23.507812 11.21875 23.136719 10.558594 C 23.085938 10.410156 22.902344 10.484375 22.785156 10.480469 M 23.394531 10.523438 C 23.71875 11.171875 24.125 11.847656 24.796875 12.1875 C 25.613281 12.59375 26.503906 12.808594 27.367188 13.089844 C 27.816406 13.214844 28.253906 13.375 28.707031 13.480469 C 29.496094 13.671875 30.296875 13.890625 31.117188 13.839844 C 31.492188 13.839844 31.855469 13.753906 32.226562 13.707031 C 32.746094 13.621094 33.28125 13.578125 33.773438 13.378906 C 33.769531 13.300781 33.765625 13.222656 33.757812 13.148438 C 33.453125 13.210938 33.136719 13.1875 32.835938 13.261719 C 32.359375 13.359375 31.878906 13.476562 31.390625 13.488281 C 30.398438 13.507812 29.410156 13.320312 28.460938 13.035156 C 26.980469 12.574219 25.628906 11.800781 24.269531 11.078125 C 23.960938 10.921875 23.699219 10.6875 23.394531 10.523438 M 25.242188 13.898438 C 25.320312 13.902344 25.402344 13.902344 25.480469 13.90625 C 25.890625 14.433594 26.519531 14.726562 27.113281 14.996094 C 27.789062 15.3125 28.539062 15.410156 29.277344 15.464844 C 29.644531 15.496094 30.011719 15.328125 30.378906 15.421875 C 30.253906 15.652344 29.972656 15.648438 29.746094 15.679688 C 28.894531 15.769531 28.042969 15.574219 27.238281 15.296875 C 26.519531 15.0625 25.882812 14.628906 25.320312 14.128906 C 25.238281 14.078125 25.257812 13.976562 25.242188 13.898438 M 19.988281 22.335938 C 20.25 21.890625 20.75 21.605469 21.269531 21.632812 C 21.734375 21.589844 22.214844 21.769531 22.515625 22.136719 C 22.863281 22.507812 22.871094 23.085938 22.664062 23.53125 C 22.710938 23.609375 22.761719 23.683594 22.828125 23.746094 C 22.867188 23.570312 22.972656 23.398438 23.152344 23.34375 C 23.769531 23.203125 24.40625 23.222656 25.03125 23.175781 C 25.191406 23.15625 25.335938 23.234375 25.488281 23.277344 C 25.707031 23.1875 25.910156 23.035156 26.15625 23.015625 C 26.644531 22.976562 27.175781 22.949219 27.625 23.195312 C 27.949219 23.351562 28.1875 23.636719 28.359375 23.945312 C 28.359375 23.695312 28.34375 23.390625 28.5625 23.21875 C 28.804688 23.027344 29.125 23.070312 29.414062 23.074219 C 29.933594 23.089844 30.464844 23.035156 30.96875 23.203125 C 31.195312 23.285156 31.410156 23.132812 31.625 23.085938 C 32.113281 23.003906 32.617188 23.085938 33.066406 23.289062 C 33.53125 23.515625 33.863281 23.972656 33.933594 24.488281 C 34.164062 24.359375 34.296875 24.117188 34.527344 23.988281 C 35.589844 23.242188 37.101562 23.355469 38.113281 24.128906 C 38.363281 24.3125 38.535156 24.570312 38.6875 24.828125 C 38.78125 24.570312 38.8125 24.242188 39.097656 24.117188 C 39.53125 24.015625 39.949219 24.210938 40.375 24.253906 C 40.671875 24.335938 40.992188 24.359375 41.257812 24.519531 C 41.488281 24.570312 41.707031 24.433594 41.9375 24.441406 C 42.203125 24.457031 42.457031 24.53125 42.714844 24.59375 C 42.847656 24.226562 42.929688 23.828125 43.164062 23.507812 C 43.28125 23.472656 43.390625 23.421875 43.515625 23.414062 C 44.265625 23.554688 44.988281 23.800781 45.726562 23.984375 C 45.972656 24.109375 46.144531 24.417969 46.027344 24.683594 C 45.882812 25.078125 45.695312 25.457031 45.554688 25.851562 C 45.460938 26.15625 45.238281 26.394531 45.070312 26.65625 C 44.800781 27.066406 44.519531 27.46875 44.253906 27.878906 C 44.1875 27.949219 44.242188 28.035156 44.261719 28.109375 C 44.421875 28.609375 44.230469 29.1875 43.8125 29.5 C 43.535156 29.730469 43.167969 29.796875 42.824219 29.832031 C 42.554688 29.773438 42.257812 29.753906 42.023438 29.589844 C 41.65625 29.367188 41.359375 28.964844 41.410156 28.515625 C 41.335938 27.949219 41.765625 27.460938 42.265625 27.265625 C 42.289062 27.121094 42.308594 26.976562 42.328125 26.832031 C 41.988281 26.972656 41.640625 26.8125 41.292969 26.835938 C 41.175781 26.96875 41.117188 27.136719 41.070312 27.304688 C 41.144531 27.382812 41.214844 27.460938 41.285156 27.539062 C 41.320312 27.804688 41.289062 28.070312 41.179688 28.316406 C 41.046875 28.625 41.042969 29.042969 40.714844 29.222656 C 40.339844 29.328125 39.980469 29.128906 39.609375 29.09375 C 39.179688 28.980469 38.746094 28.921875 38.3125 28.828125 C 38.054688 28.824219 37.839844 28.59375 37.839844 28.339844 C 37.453125 28.445312 37.070312 28.566406 36.671875 28.621094 C 36.394531 28.636719 36.121094 28.628906 35.847656 28.605469 C 35.507812 28.507812 35.144531 28.476562 34.828125 28.300781 C 34.527344 28.136719 34.207031 27.953125 34.039062 27.640625 C 34.027344 27.851562 33.914062 28.027344 33.746094 28.144531 C 33.351562 28.160156 32.949219 28.167969 32.5625 28.09375 C 32.175781 28.0625 31.785156 28.082031 31.402344 28.011719 C 30.484375 28.039062 29.574219 27.945312 28.660156 27.921875 C 28.226562 27.945312 27.792969 27.941406 27.359375 27.945312 C 27.0625 27.9375 26.765625 28.058594 26.472656 27.96875 C 26.308594 27.914062 26.15625 28.03125 25.992188 28.015625 C 25.554688 28 25.125 28.082031 24.691406 28.070312 C 24.296875 28.050781 23.910156 28.21875 23.523438 28.085938 C 23.230469 28.265625 22.882812 28.175781 22.5625 28.253906 C 22.105469 28.332031 21.640625 28.332031 21.1875 28.417969 C 20.988281 28.433594 20.746094 28.378906 20.625 28.210938 C 20.449219 27.855469 20.464844 27.449219 20.363281 27.078125 C 20.285156 26.847656 20.40625 26.613281 20.578125 26.464844 C 20.558594 26.203125 20.453125 25.957031 20.464844 25.691406 C 20.300781 25.59375 20.101562 25.5 20.035156 25.300781 C 19.957031 25.03125 19.953125 24.742188 19.875 24.46875 C 19.769531 24.925781 19.828125 25.398438 19.738281 25.859375 C 19.707031 26.359375 19.746094 26.859375 19.675781 27.355469 C 19.625 27.773438 19.789062 28.28125 19.453125 28.617188 C 19.101562 28.785156 18.703125 28.789062 18.328125 28.867188 C 18.054688 28.9375 17.777344 28.957031 17.507812 29.027344 C 17.28125 29.09375 16.996094 29.015625 16.867188 28.808594 C 16.75 28.632812 16.667969 28.433594 16.527344 28.273438 C 16.523438 28.539062 16.539062 28.804688 16.496094 29.066406 C 16.417969 29.136719 16.34375 29.210938 16.269531 29.285156 C 15.792969 29.394531 15.3125 29.503906 14.839844 29.632812 C 14.609375 29.699219 14.363281 29.800781 14.121094 29.734375 C 13.914062 29.679688 13.808594 29.476562 13.691406 29.316406 C 12.964844 28.222656 12.222656 27.144531 11.464844 26.070312 C 11.222656 26.089844 10.917969 26.105469 10.769531 25.875 C 10.574219 25.566406 10.472656 25.210938 10.335938 24.875 C 10.179688 24.578125 10.378906 24.144531 10.71875 24.09375 C 11.660156 23.847656 12.585938 23.550781 13.535156 23.355469 C 13.695312 23.320312 13.839844 23.390625 13.957031 23.496094 C 14.089844 23.167969 14.460938 23.128906 14.761719 23.058594 C 15.21875 22.96875 15.667969 22.859375 16.128906 22.789062 C 16.316406 22.757812 16.492188 22.832031 16.660156 22.902344 C 16.890625 22.523438 17.363281 22.585938 17.734375 22.476562 C 18.316406 22.390625 18.898438 22.28125 19.488281 22.214844 C 19.667969 22.148438 19.835938 22.257812 19.988281 22.335938 M 20.859375 22.257812 C 20.839844 22.257812 20.800781 22.253906 20.777344 22.25 C 20.652344 22.367188 20.5 22.472656 20.429688 22.636719 C 20.371094 22.863281 20.371094 23.117188 20.492188 23.324219 C 20.558594 23.355469 20.605469 23.402344 20.640625 23.464844 C 21.003906 23.726562 21.511719 23.769531 21.898438 23.542969 C 21.933594 23.527344 22 23.488281 22.035156 23.472656 C 22.105469 23.378906 22.175781 23.289062 22.246094 23.199219 C 22.269531 23.007812 22.273438 22.816406 22.238281 22.625 C 22.085938 22.441406 21.929688 22.261719 21.683594 22.195312 C 21.417969 22.105469 21.101562 22.097656 20.859375 22.257812 M 18.878906 22.855469 C 18.714844 22.867188 18.546875 22.875 18.378906 22.890625 C 17.980469 22.984375 17.570312 23.042969 17.164062 23.09375 C 17.203125 23.285156 17.261719 23.476562 17.285156 23.671875 C 17.296875 23.707031 17.324219 23.777344 17.339844 23.8125 C 17.378906 23.90625 17.394531 24.003906 17.414062 24.105469 C 17.453125 24.097656 17.539062 24.089844 17.578125 24.085938 C 17.671875 24.039062 17.773438 24.042969 17.875 24.035156 C 17.878906 24.664062 17.855469 25.296875 17.902344 25.925781 C 17.972656 26.164062 17.945312 26.417969 18.003906 26.660156 C 17.832031 26.28125 17.65625 25.902344 17.503906 25.515625 C 17.453125 25.449219 17.40625 25.375 17.378906 25.292969 C 17.324219 25.210938 17.277344 25.121094 17.238281 25.03125 C 17.152344 24.898438 17.082031 24.757812 17.003906 24.625 C 16.8125 24.25 16.601562 23.886719 16.382812 23.527344 C 16.347656 23.449219 16.316406 23.371094 16.285156 23.296875 C 16.007812 23.359375 15.71875 23.355469 15.453125 23.46875 C 15.335938 23.480469 15.214844 23.496094 15.097656 23.503906 C 14.90625 23.570312 14.707031 23.625 14.503906 23.648438 C 14.503906 24.140625 14.535156 24.636719 14.53125 25.132812 L 14.585938 25.132812 C 14.609375 25.863281 14.6875 26.589844 14.800781 27.3125 C 14.730469 27.21875 14.675781 27.117188 14.636719 27.007812 C 14.605469 26.945312 14.570312 26.882812 14.535156 26.824219 C 14.464844 26.675781 14.378906 26.535156 14.304688 26.386719 C 14.195312 26.238281 14.117188 26.070312 14.023438 25.910156 C 13.96875 25.828125 13.917969 25.742188 13.875 25.65625 C 13.738281 25.421875 13.59375 25.195312 13.464844 24.957031 C 13.613281 24.902344 13.765625 24.863281 13.921875 24.839844 C 13.90625 24.691406 13.855469 24.550781 13.789062 24.421875 C 13.75 24.238281 13.679688 24.0625 13.605469 23.894531 C 13.550781 23.902344 13.441406 23.917969 13.386719 23.925781 C 13.292969 23.945312 13.203125 23.96875 13.113281 23.988281 C 13.027344 24.027344 12.933594 24.042969 12.839844 24.0625 C 12.746094 24.082031 12.652344 24.101562 12.558594 24.121094 C 12.140625 24.265625 11.691406 24.332031 11.28125 24.5 C 11.207031 24.511719 11.132812 24.523438 11.058594 24.535156 C 10.980469 24.558594 10.902344 24.582031 10.824219 24.601562 C 10.828125 24.65625 10.835938 24.710938 10.84375 24.769531 C 10.976562 25.027344 11.070312 25.304688 11.183594 25.570312 C 11.34375 25.503906 11.515625 25.441406 11.691406 25.46875 C 11.789062 25.652344 11.917969 25.816406 12.046875 25.972656 C 12.128906 26.09375 12.210938 26.214844 12.28125 26.339844 C 12.425781 26.5 12.539062 26.683594 12.664062 26.859375 C 12.878906 27.1875 13.121094 27.5 13.324219 27.835938 C 13.46875 27.988281 13.546875 28.191406 13.6875 28.347656 C 13.746094 28.429688 13.800781 28.515625 13.855469 28.605469 C 13.992188 28.820312 14.144531 29.023438 14.265625 29.246094 C 14.328125 29.238281 14.394531 29.234375 14.457031 29.230469 L 14.460938 29.179688 C 14.988281 29.085938 15.5 28.914062 16.027344 28.808594 C 15.988281 27.882812 15.914062 26.960938 15.867188 26.039062 C 15.96875 26.199219 16.042969 26.375 16.152344 26.535156 C 16.214844 26.683594 16.308594 26.820312 16.386719 26.964844 C 16.519531 27.15625 16.621094 27.367188 16.757812 27.5625 C 16.832031 27.714844 16.925781 27.859375 17.003906 28.011719 C 17.117188 28.183594 17.214844 28.371094 17.335938 28.542969 C 17.714844 28.472656 18.082031 28.347656 18.46875 28.324219 C 18.683594 28.277344 18.894531 28.214844 19.113281 28.199219 C 19.121094 27.984375 19.121094 27.769531 19.132812 27.550781 C 19.203125 27.09375 19.179688 26.625 19.1875 26.160156 L 19.234375 26.152344 C 19.230469 25.707031 19.246094 25.261719 19.265625 24.816406 C 19.34375 24.574219 19.292969 24.316406 19.359375 24.074219 C 19.363281 23.976562 19.367188 23.875 19.367188 23.777344 C 19.515625 23.761719 19.664062 23.746094 19.8125 23.730469 C 19.804688 23.59375 19.808594 23.453125 19.742188 23.328125 C 19.71875 23.125 19.683594 22.929688 19.652344 22.730469 C 19.523438 22.738281 19.398438 22.746094 19.269531 22.757812 C 19.140625 22.792969 19 22.792969 18.878906 22.855469 M 26.203125 23.53125 C 26 23.601562 25.804688 23.710938 25.632812 23.84375 C 25.589844 23.894531 25.542969 23.941406 25.5 23.992188 C 25.453125 24.042969 25.40625 24.09375 25.359375 24.144531 C 25.316406 24.046875 25.273438 23.957031 25.210938 23.875 C 25.199219 23.835938 25.179688 23.761719 25.167969 23.726562 C 24.558594 23.726562 23.949219 23.785156 23.339844 23.824219 C 23.351562 23.984375 23.359375 24.148438 23.363281 24.3125 L 23.414062 24.308594 C 23.425781 24.492188 23.414062 24.679688 23.496094 24.851562 C 23.605469 24.796875 23.71875 24.804688 23.824219 24.855469 C 23.84375 25.429688 23.957031 25.996094 23.976562 26.570312 C 23.875 26.570312 23.777344 26.574219 23.675781 26.574219 C 23.664062 26.921875 23.792969 27.25 23.777344 27.597656 C 24.574219 27.578125 25.367188 27.453125 26.171875 27.460938 C 26.164062 27.117188 26.101562 26.777344 26.089844 26.433594 C 25.988281 26.4375 25.886719 26.449219 25.789062 26.476562 C 25.730469 26.480469 25.609375 26.484375 25.550781 26.488281 C 25.527344 26.183594 25.476562 25.882812 25.472656 25.578125 C 25.464844 25.316406 25.417969 25.007812 25.632812 24.8125 C 25.753906 24.652344 25.976562 24.730469 26.148438 24.710938 C 26.253906 24.816406 26.378906 24.925781 26.367188 25.089844 C 26.398438 25.878906 26.488281 26.664062 26.503906 27.453125 C 27.148438 27.425781 27.792969 27.46875 28.433594 27.40625 C 28.425781 27.078125 28.429688 26.746094 28.429688 26.414062 C 28.3125 26.414062 28.195312 26.414062 28.078125 26.417969 C 28.054688 25.863281 28.082031 25.304688 28.054688 24.746094 C 28.015625 24.585938 27.980469 24.421875 27.921875 24.265625 C 27.90625 24.230469 27.878906 24.15625 27.863281 24.121094 C 27.660156 23.824219 27.363281 23.597656 27.007812 23.523438 C 26.742188 23.480469 26.46875 23.476562 26.203125 23.53125 M 31.273438 23.789062 C 31.117188 23.871094 31.007812 24.023438 30.835938 24.074219 C 30.804688 23.929688 30.765625 23.785156 30.726562 23.644531 C 30.121094 23.628906 29.511719 23.621094 28.90625 23.617188 C 28.90625 23.941406 28.914062 24.265625 28.882812 24.585938 C 28.992188 24.644531 29.117188 24.640625 29.238281 24.640625 C 29.230469 25.214844 29.21875 25.789062 29.222656 26.363281 C 29.121094 26.375 28.960938 26.496094 28.914062 26.332031 C 28.804688 26.675781 28.875 27.046875 28.84375 27.402344 C 28.9375 27.425781 29.035156 27.441406 29.132812 27.4375 C 29.835938 27.441406 30.535156 27.453125 31.234375 27.476562 C 31.257812 27.148438 31.285156 26.820312 31.296875 26.492188 C 31.214844 26.484375 31.128906 26.480469 31.046875 26.472656 C 30.949219 26.449219 30.851562 26.441406 30.753906 26.4375 C 30.757812 26.285156 30.765625 26.132812 30.773438 25.980469 C 30.839844 25.664062 30.742188 25.316406 30.890625 25.015625 C 30.90625 24.980469 30.941406 24.910156 30.957031 24.875 C 31.027344 24.824219 31.097656 24.773438 31.167969 24.71875 C 31.273438 24.71875 31.378906 24.71875 31.484375 24.71875 C 31.585938 24.800781 31.730469 24.871094 31.722656 25.023438 C 31.753906 25.699219 31.636719 26.371094 31.628906 27.046875 L 31.578125 27.042969 C 31.578125 27.183594 31.570312 27.324219 31.558594 27.464844 C 31.769531 27.554688 32.003906 27.503906 32.222656 27.539062 C 32.652344 27.621094 33.089844 27.585938 33.523438 27.617188 C 33.554688 27.292969 33.574219 26.960938 33.671875 26.648438 C 33.539062 26.640625 33.402344 26.632812 33.269531 26.625 C 33.320312 26.324219 33.34375 26.019531 33.390625 25.722656 C 33.417969 25.238281 33.496094 24.734375 33.332031 24.265625 C 33.277344 24.195312 33.230469 24.117188 33.195312 24.039062 L 33.160156 24.03125 C 32.695312 23.53125 31.851562 23.4375 31.273438 23.789062 M 43.488281 23.953125 C 43.414062 24.144531 43.375 24.347656 43.28125 24.535156 C 43.25 24.636719 43.21875 24.734375 43.191406 24.835938 C 43.152344 24.917969 43.117188 25 43.085938 25.082031 C 43.078125 25.121094 43.0625 25.203125 43.058594 25.242188 C 42.945312 25.476562 42.992188 25.746094 42.945312 25.996094 C 42.925781 26.421875 42.824219 26.839844 42.785156 27.265625 C 43.097656 27.328125 43.398438 27.445312 43.710938 27.507812 C 43.761719 27.515625 43.808594 27.523438 43.859375 27.527344 C 43.992188 27.3125 44.136719 27.101562 44.28125 26.894531 C 44.359375 26.769531 44.4375 26.644531 44.519531 26.523438 C 44.652344 26.351562 44.757812 26.164062 44.894531 25.996094 C 44.914062 25.964844 44.953125 25.898438 44.972656 25.867188 C 45.015625 25.773438 45.054688 25.679688 45.085938 25.585938 C 45.113281 25.515625 45.140625 25.449219 45.175781 25.386719 C 45.285156 25.109375 45.386719 24.828125 45.519531 24.566406 C 45.523438 24.539062 45.527344 24.484375 45.53125 24.460938 C 45.304688 24.417969 45.082031 24.363281 44.867188 24.285156 C 44.675781 24.214844 44.457031 24.21875 44.28125 24.113281 C 44.195312 24.105469 44.113281 24.097656 44.027344 24.09375 L 44.019531 24.050781 C 43.917969 24.042969 43.8125 24.039062 43.722656 23.984375 C 43.644531 23.972656 43.566406 23.960938 43.488281 23.953125 M 20.929688 24.085938 C 20.734375 24.101562 20.535156 24.109375 20.335938 24.121094 C 20.414062 24.429688 20.464844 24.746094 20.488281 25.0625 L 20.550781 25.0625 L 20.535156 25.144531 C 20.652344 25.136719 20.773438 25.125 20.890625 25.117188 C 20.894531 25.222656 20.898438 25.332031 20.933594 25.433594 C 20.949219 25.546875 20.957031 25.667969 21.007812 25.773438 C 21.035156 26.136719 21.128906 26.492188 21.195312 26.851562 C 21.085938 26.855469 20.980469 26.863281 20.878906 26.90625 C 20.890625 27.019531 20.898438 27.132812 20.902344 27.25 L 20.945312 27.257812 C 20.949219 27.339844 20.957031 27.421875 20.96875 27.503906 C 21.027344 27.625 21.027344 27.761719 21.039062 27.894531 C 21.621094 27.867188 22.191406 27.71875 22.777344 27.707031 C 22.902344 27.660156 23.039062 27.65625 23.171875 27.660156 C 23.175781 27.410156 23.152344 27.160156 23.140625 26.910156 L 23.089844 26.90625 C 23.082031 26.820312 23.078125 26.734375 23.070312 26.648438 C 23.007812 26.660156 22.882812 26.675781 22.820312 26.683594 C 22.785156 26.671875 22.71875 26.652344 22.683594 26.640625 C 22.679688 26.492188 22.671875 26.339844 22.621094 26.203125 C 22.597656 25.867188 22.53125 25.535156 22.519531 25.199219 L 22.46875 25.203125 C 22.4375 24.78125 22.378906 24.359375 22.300781 23.945312 C 22.066406 23.957031 21.832031 23.964844 21.601562 23.988281 C 21.386719 24.082031 21.148438 24.003906 20.929688 24.085938 M 35.417969 24.113281 C 35.316406 24.183594 35.195312 24.222656 35.078125 24.257812 C 34.851562 24.390625 34.648438 24.558594 34.460938 24.746094 C 34.371094 24.875 34.277344 25.011719 34.222656 25.164062 C 33.941406 25.722656 33.980469 26.394531 34.179688 26.976562 L 34.230469 26.976562 C 34.269531 27.128906 34.367188 27.25 34.457031 27.371094 C 34.53125 27.4375 34.601562 27.507812 34.667969 27.578125 C 34.722656 27.613281 34.777344 27.644531 34.832031 27.679688 C 35 27.835938 35.230469 27.878906 35.425781 27.988281 C 35.875 28.09375 36.339844 28.09375 36.796875 28.066406 C 36.957031 28.042969 37.128906 28.035156 37.273438 27.953125 C 37.480469 27.894531 37.679688 27.804688 37.871094 27.703125 C 37.839844 27.46875 37.640625 27.289062 37.535156 27.082031 C 37.496094 27.007812 37.464844 26.933594 37.433594 26.855469 C 37.410156 26.855469 37.363281 26.855469 37.34375 26.855469 C 37.304688 26.871094 37.226562 26.910156 37.1875 26.925781 L 37.179688 26.96875 C 36.761719 27.070312 36.320312 27.082031 35.902344 26.964844 C 35.839844 26.902344 35.769531 26.851562 35.691406 26.8125 C 35.648438 26.699219 35.601562 26.585938 35.546875 26.476562 C 35.546875 26.449219 35.542969 26.386719 35.542969 26.359375 C 35.871094 26.375 36.203125 26.398438 36.519531 26.480469 C 36.832031 26.503906 37.136719 26.574219 37.453125 26.578125 L 37.457031 26.628906 C 37.652344 26.644531 37.847656 26.675781 38.046875 26.699219 C 38.210938 26.417969 38.273438 26.101562 38.335938 25.785156 C 38.382812 25.386719 38.210938 24.992188 37.957031 24.691406 C 37.355469 24.109375 36.453125 23.925781 35.644531 24.085938 C 35.570312 24.09375 35.496094 24.105469 35.417969 24.113281 M 39.113281 25.292969 C 39.101562 25.394531 39.085938 25.492188 39.070312 25.589844 C 39.183594 25.605469 39.296875 25.617188 39.40625 25.632812 C 39.320312 25.871094 39.261719 26.113281 39.21875 26.363281 L 39.175781 26.363281 C 39.15625 26.558594 39.121094 26.753906 39.050781 26.9375 C 39.011719 27.085938 38.976562 27.234375 38.949219 27.386719 C 38.820312 27.351562 38.691406 27.328125 38.5625 27.3125 C 38.550781 27.4375 38.546875 27.566406 38.503906 27.6875 C 38.492188 27.765625 38.472656 27.839844 38.441406 27.910156 C 38.40625 28.046875 38.378906 28.1875 38.351562 28.324219 C 38.699219 28.332031 39.023438 28.457031 39.367188 28.503906 C 39.710938 28.558594 40.039062 28.691406 40.390625 28.699219 C 40.402344 28.722656 40.429688 28.773438 40.441406 28.796875 C 40.613281 28.496094 40.636719 28.125 40.816406 27.839844 C 40.792969 27.667969 40.566406 27.75 40.457031 27.707031 C 40.476562 27.328125 40.621094 26.957031 40.785156 26.617188 C 40.851562 26.519531 40.945312 26.449219 41.035156 26.375 C 41.117188 26.367188 41.203125 26.359375 41.285156 26.351562 L 41.285156 26.292969 C 41.539062 26.285156 41.777344 26.371094 42.03125 26.375 C 42.046875 26.242188 42.101562 26.125 42.152344 26.003906 C 42.203125 25.738281 42.332031 25.492188 42.402344 25.230469 C 42.429688 25.175781 42.457031 25.117188 42.484375 25.058594 C 42.128906 24.992188 41.722656 24.921875 41.386719 25.097656 C 41.246094 25.164062 41.136719 25.269531 41.003906 25.34375 C 40.996094 25.371094 40.980469 25.414062 40.972656 25.441406 C 40.957031 25.324219 40.9375 25.207031 40.917969 25.089844 C 40.894531 25.023438 40.875 24.953125 40.859375 24.882812 C 40.636719 24.851562 40.417969 24.804688 40.195312 24.777344 L 40.195312 24.730469 C 39.894531 24.707031 39.589844 24.671875 39.304688 24.582031 C 39.253906 24.820312 39.167969 25.054688 39.113281 25.292969 M 28.617188 25.082031 C 28.609375 25.355469 28.617188 25.628906 28.613281 25.902344 C 28.632812 25.902344 28.667969 25.902344 28.683594 25.898438 C 28.675781 25.675781 28.683594 25.453125 28.683594 25.230469 C 28.695312 25.164062 28.675781 25.113281 28.617188 25.082031 M 23.011719 25.171875 C 23.046875 25.507812 23.132812 25.832031 23.160156 26.164062 C 23.253906 26.167969 23.347656 26.167969 23.441406 26.167969 C 23.347656 25.910156 23.347656 25.628906 23.34375 25.359375 C 23.242188 25.28125 23.136719 25.207031 23.011719 25.171875 M 42.203125 27.902344 C 42.140625 27.972656 42.078125 28.042969 42.019531 28.117188 C 41.980469 28.199219 41.949219 28.285156 41.910156 28.363281 C 41.894531 28.515625 41.933594 28.664062 41.988281 28.800781 C 42.007812 28.832031 42.039062 28.898438 42.058594 28.929688 C 42.105469 28.976562 42.152344 29.027344 42.199219 29.078125 C 42.332031 29.164062 42.46875 29.242188 42.628906 29.273438 C 42.761719 29.296875 42.898438 29.300781 43.039062 29.289062 C 43.109375 29.265625 43.179688 29.246094 43.25 29.230469 C 43.421875 29.132812 43.59375 29.019531 43.699219 28.847656 C 43.804688 28.617188 43.78125 28.351562 43.714844 28.117188 C 43.585938 27.960938 43.425781 27.84375 43.25 27.75 C 43.152344 27.726562 43.058594 27.703125 42.964844 27.675781 C 42.691406 27.644531 42.421875 27.742188 42.203125 27.902344 M 35.710938 25.601562 C 35.765625 25.359375 35.945312 25.109375 36.214844 25.117188 L 36.226562 25.058594 C 36.40625 25.105469 36.601562 25.113281 36.765625 25.210938 C 36.933594 25.339844 36.894531 25.570312 36.898438 25.757812 C 36.503906 25.699219 36.109375 25.617188 35.710938 25.601562 Z M 35.710938 25.601562 "/>
<path style=" stroke:none;fill-rule:nonzero;fill:rgb(100%,100%,100%);fill-opacity:1;" d="M 18.234375 1.742188 C 25.199219 -0.855469 33.21875 -0.546875 39.933594 2.660156 C 44.601562 4.855469 48.636719 8.371094 51.453125 12.691406 C 52.867188 14.871094 53.996094 17.238281 54.765625 19.71875 C 56.296875 24.703125 56.398438 30.113281 55.082031 35.15625 C 54.164062 38.652344 52.542969 41.953125 50.375 44.839844 C 48.121094 47.824219 45.273438 50.363281 42.035156 52.230469 C 40.105469 53.347656 38.050781 54.246094 35.914062 54.871094 C 33.625 55.546875 31.246094 55.90625 28.863281 55.984375 C 28.578125 55.988281 28.289062 56.015625 28.003906 55.984375 C 26.785156 56.015625 25.558594 55.90625 24.34375 55.761719 C 19.097656 55.105469 14.078125 52.867188 10.027344 49.476562 C 5.957031 46.078125 2.890625 41.5 1.289062 36.449219 C 0.03125 32.441406 -0.304688 28.148438 0.285156 23.992188 C 0.964844 19.0625 3.046875 14.347656 6.15625 10.472656 C 9.300781 6.542969 13.523438 3.503906 18.234375 1.742188 M 24.882812 5.441406 C 24.617188 5.628906 24.460938 5.929688 24.21875 6.144531 C 23.863281 6.417969 23.503906 6.699219 23.078125 6.855469 C 22.878906 6.929688 22.671875 6.976562 22.480469 7.066406 C 22.019531 7.261719 21.640625 7.597656 21.273438 7.929688 C 20.695312 8.589844 20.152344 9.292969 19.722656 10.0625 C 19.664062 10.160156 19.671875 10.273438 19.671875 10.382812 C 19.675781 11.683594 19.667969 12.984375 19.675781 14.289062 C 19.742188 14.796875 19.699219 15.3125 19.710938 15.828125 C 16.898438 15.828125 14.085938 15.824219 11.269531 15.828125 C 10.457031 15.847656 9.753906 16.515625 9.613281 17.304688 C 9.464844 18.136719 10.007812 19.003906 10.804688 19.273438 C 11.335938 19.429688 11.894531 19.371094 12.441406 19.378906 C 12.71875 19.386719 13.015625 19.347656 13.269531 19.492188 C 13.550781 19.65625 13.847656 19.859375 13.96875 20.175781 C 14.066406 20.457031 14.171875 20.761719 14.089844 21.058594 C 14.027344 21.46875 13.757812 21.804688 13.511719 22.121094 C 13.164062 22.574219 12.9375 23.144531 12.421875 23.4375 C 11.757812 23.582031 11.109375 23.800781 10.453125 23.984375 C 10.402344 24.027344 10.347656 24.074219 10.292969 24.117188 C 10.246094 24.1875 10.195312 24.253906 10.144531 24.320312 C 10.078125 24.558594 10.070312 24.824219 10.191406 25.046875 C 9.386719 25.636719 8.703125 26.417969 8.324219 27.347656 C 8.023438 28.125 8.015625 29.023438 8.371094 29.78125 C 8.644531 30.363281 9.144531 30.832031 9.734375 31.082031 C 9.871094 31.148438 10.058594 31.148438 10.140625 31.296875 C 9.574219 31.484375 8.992188 31.652344 8.460938 31.941406 C 8.203125 32.066406 7.957031 32.210938 7.699219 32.335938 C 6.367188 33.128906 5.171875 34.132812 4.136719 35.285156 C 5.378906 35.035156 6.597656 34.679688 7.855469 34.5 C 6.519531 35.34375 5.597656 36.664062 4.652344 37.898438 C 4.828125 37.828125 5.007812 37.765625 5.175781 37.675781 C 6.132812 37.320312 7.113281 37.023438 8.121094 36.851562 C 8.910156 36.699219 9.695312 36.5 10.492188 36.394531 C 11 38.527344 12.015625 40.546875 13.492188 42.175781 C 14.460938 43.230469 15.574219 44.15625 16.785156 44.921875 C 16.84375 44.957031 16.871094 45.011719 16.867188 45.082031 C 16.886719 45.949219 16.796875 46.816406 16.894531 47.679688 C 16.988281 48.222656 17.019531 48.890625 17.539062 49.214844 C 17.816406 49.269531 18.136719 49.273438 18.378906 49.105469 C 19.292969 48.480469 19.863281 47.519531 20.492188 46.636719 C 21.59375 46.878906 22.671875 47.246094 23.796875 47.402344 C 24.136719 47.492188 24.488281 47.484375 24.828125 47.558594 C 25.515625 47.613281 26.195312 47.695312 26.878906 47.769531 C 27.183594 48.410156 27.390625 49.144531 27.945312 49.628906 C 28.195312 49.84375 28.554688 49.867188 28.839844 49.703125 C 29.277344 49.316406 29.503906 48.757812 29.707031 48.222656 C 29.777344 48.050781 29.789062 47.8125 29.957031 47.703125 C 31.058594 47.597656 32.164062 47.484375 33.25 47.25 C 34.246094 47.019531 35.25 46.777344 36.203125 46.390625 C 36.945312 47.308594 37.492188 48.425781 38.503906 49.089844 C 38.734375 49.253906 39.03125 49.273438 39.300781 49.226562 C 39.570312 49.132812 39.710938 48.859375 39.796875 48.609375 C 40.101562 47.621094 40.003906 46.578125 40.019531 45.5625 C 40.011719 45.210938 39.949219 44.859375 40 44.511719 C 40.304688 44.203125 40.691406 43.988281 41.015625 43.703125 C 41.90625 42.945312 42.738281 42.109375 43.402344 41.140625 C 44.417969 39.753906 45.121094 38.152344 45.539062 36.488281 C 46.070312 36.585938 46.609375 36.667969 47.128906 36.8125 C 47.59375 36.871094 48.046875 36.988281 48.507812 37.0625 C 49.414062 37.320312 50.335938 37.542969 51.179688 37.964844 C 51.132812 37.800781 51.023438 37.671875 50.925781 37.535156 C 50.589844 37.078125 50.25 36.617188 49.855469 36.203125 C 49.347656 35.582031 48.746094 35.046875 48.09375 34.578125 C 49.324219 34.785156 50.527344 35.101562 51.742188 35.359375 C 50.777344 34.214844 49.589844 33.261719 48.3125 32.480469 C 47.527344 32.042969 46.71875 31.617188 45.835938 31.414062 C 45.898438 31.367188 45.941406 31.300781 45.964844 31.21875 C 46.789062 30.976562 47.507812 30.367188 47.800781 29.546875 C 48.027344 28.828125 47.992188 28.023438 47.710938 27.320312 C 47.378906 26.464844 46.761719 25.742188 46.050781 25.167969 C 46.15625 24.882812 46.308594 24.574219 46.207031 24.269531 C 46.152344 24.074219 46.003906 23.917969 45.832031 23.824219 C 45.199219 23.632812 44.566406 23.460938 43.921875 23.316406 C 43.738281 23.277344 43.546875 23.167969 43.359375 23.242188 C 43.058594 22.902344 42.835938 22.5 42.558594 22.140625 C 42.328125 21.820312 42.03125 21.523438 41.96875 21.117188 C 41.839844 20.660156 41.992188 20.144531 42.324219 19.808594 C 42.644531 19.476562 43.125 19.347656 43.578125 19.382812 C 44.140625 19.355469 44.726562 19.46875 45.269531 19.261719 C 45.808594 19.0625 46.242188 18.597656 46.402344 18.042969 C 46.738281 16.980469 45.773438 15.789062 44.675781 15.8125 C 41.445312 15.800781 38.210938 15.808594 34.980469 15.808594 C 34.988281 15.664062 34.980469 15.519531 35.039062 15.382812 C 35.042969 15.144531 35.082031 14.914062 35.15625 14.6875 C 35.191406 14.667969 35.261719 14.628906 35.296875 14.609375 C 35.597656 14.472656 35.898438 14.316406 36.144531 14.097656 C 36.433594 13.714844 36.714844 13.273438 36.710938 12.773438 C 36.65625 12.398438 36.5625 12.027344 36.417969 11.675781 C 36.136719 11.242188 35.636719 11.035156 35.164062 10.882812 C 34.835938 10.769531 34.484375 10.851562 34.144531 10.867188 C 34.082031 10.753906 34.027344 10.640625 33.972656 10.527344 C 33.984375 10.355469 33.925781 10.152344 34.054688 10.011719 C 34.171875 9.945312 34.308594 9.941406 34.441406 9.921875 C 34.441406 9.800781 34.441406 9.683594 34.414062 9.566406 C 34.324219 9.335938 34.121094 9.140625 34.136719 8.878906 C 34.144531 8.65625 34.09375 8.441406 34.003906 8.238281 C 33.96875 8.234375 33.898438 8.21875 33.863281 8.210938 C 33.597656 7.992188 33.355469 7.742188 33.0625 7.558594 C 32.953125 7.503906 32.832031 7.464844 32.769531 7.351562 C 32.671875 7.011719 32.570312 6.667969 32.410156 6.347656 C 32.332031 6.183594 32.164062 6.085938 32.011719 5.996094 C 31.734375 5.847656 31.441406 5.714844 31.125 5.667969 C 30.753906 5.628906 30.382812 5.691406 30.019531 5.753906 C 29.691406 5.800781 29.375 5.925781 29.121094 6.144531 C 29.105469 6.253906 29.074219 6.359375 29.007812 6.453125 C 28.976562 6.300781 28.953125 6.128906 28.839844 6.011719 L 28.839844 5.984375 C 28.640625 5.703125 28.421875 5.421875 28.125 5.234375 C 27.59375 4.835938 26.90625 4.738281 26.257812 4.71875 C 25.714844 4.730469 25.300781 5.140625 24.882812 5.441406 M 26.097656 8.363281 C 26.515625 8.269531 26.945312 8.210938 27.375 8.230469 C 27.375 8.410156 27.375 8.59375 27.375 8.773438 C 26.734375 8.765625 26.0625 8.824219 25.496094 9.152344 C 25.371094 9.046875 25.246094 8.933594 25.121094 8.828125 C 25.132812 8.800781 25.148438 8.746094 25.15625 8.71875 C 25.492188 8.652344 25.761719 8.429688 26.097656 8.363281 M 27.5625 8.40625 C 27.644531 8.390625 27.722656 8.359375 27.773438 8.289062 C 27.835938 8.335938 27.898438 8.382812 27.960938 8.4375 C 27.90625 8.558594 27.785156 8.613281 27.667969 8.65625 C 27.640625 8.570312 27.613281 8.480469 27.5625 8.40625 M 28.191406 8.539062 C 28.261719 8.574219 28.332031 8.605469 28.402344 8.640625 C 28.410156 8.714844 28.417969 8.789062 28.429688 8.863281 C 28.351562 8.851562 28.273438 8.84375 28.195312 8.835938 C 28.191406 8.738281 28.191406 8.636719 28.191406 8.539062 M 28.660156 8.539062 C 28.753906 8.554688 28.871094 8.515625 28.949219 8.570312 C 28.972656 8.710938 28.859375 8.828125 28.808594 8.949219 C 28.761719 8.8125 28.714844 8.675781 28.660156 8.539062 M 29.117188 8.601562 C 29.191406 8.621094 29.269531 8.636719 29.347656 8.65625 C 29.484375 8.855469 29.746094 8.980469 29.789062 9.238281 C 29.929688 9.359375 30.003906 9.535156 30.128906 9.667969 C 30.125 9.738281 30.125 9.875 30.121094 9.945312 C 29.972656 9.945312 29.824219 9.949219 29.675781 9.941406 C 29.441406 9.765625 29.269531 9.523438 29.03125 9.347656 C 28.980469 9.09375 29.105469 8.851562 29.117188 8.601562 M 30.941406 9.625 C 31.105469 9.527344 31.285156 9.464844 31.472656 9.433594 C 31.753906 9.347656 32.054688 9.382812 32.34375 9.371094 C 32.292969 9.566406 32.269531 9.773438 32.320312 9.972656 C 32.449219 10.054688 32.472656 10.214844 32.527344 10.34375 C 32.371094 10.296875 32.195312 10.292969 32.066406 10.179688 C 31.9375 10.070312 31.765625 10.0625 31.613281 10.027344 C 31.417969 10.019531 31.222656 10.003906 31.027344 10.003906 C 30.960938 9.886719 30.9375 9.757812 30.941406 9.625 M 32.9375 9.84375 C 33.027344 9.84375 33.121094 9.839844 33.210938 9.839844 C 33.210938 9.882812 33.210938 9.972656 33.210938 10.015625 C 33.121094 10.015625 33.03125 10.015625 32.941406 10.015625 C 32.941406 9.972656 32.9375 9.886719 32.9375 9.84375 M 20.859375 22.257812 C 21.101562 22.097656 21.417969 22.105469 21.683594 22.195312 C 21.929688 22.261719 22.085938 22.441406 22.238281 22.625 C 22.273438 22.816406 22.269531 23.007812 22.246094 23.199219 C 22.175781 23.289062 22.105469 23.378906 22.035156 23.472656 C 22 23.488281 21.933594 23.527344 21.898438 23.542969 C 21.511719 23.769531 21.003906 23.726562 20.640625 23.464844 C 20.605469 23.402344 20.558594 23.355469 20.492188 23.324219 C 20.371094 23.117188 20.371094 22.863281 20.429688 22.636719 C 20.5 22.472656 20.652344 22.367188 20.777344 22.25 C 20.800781 22.253906 20.839844 22.257812 20.859375 22.257812 M 18.878906 22.855469 C 19 22.792969 19.140625 22.792969 19.269531 22.757812 C 19.398438 22.746094 19.523438 22.738281 19.652344 22.730469 C 19.683594 22.929688 19.71875 23.128906 19.742188 23.328125 C 19.808594 23.453125 19.804688 23.59375 19.8125 23.730469 C 19.664062 23.746094 19.515625 23.761719 19.367188 23.777344 C 19.367188 23.875 19.363281 23.976562 19.359375 24.074219 C 19.292969 24.316406 19.34375 24.574219 19.265625 24.816406 C 19.246094 25.261719 19.230469 25.707031 19.234375 26.152344 L 19.1875 26.160156 C 19.179688 26.625 19.203125 27.09375 19.132812 27.554688 C 19.121094 27.769531 19.121094 27.984375 19.113281 28.199219 C 18.894531 28.214844 18.683594 28.277344 18.46875 28.324219 C 18.082031 28.347656 17.714844 28.472656 17.335938 28.542969 C 17.214844 28.371094 17.117188 28.183594 17.003906 28.011719 C 16.925781 27.859375 16.832031 27.714844 16.753906 27.5625 C 16.621094 27.367188 16.519531 27.15625 16.386719 26.964844 C 16.308594 26.820312 16.214844 26.683594 16.152344 26.535156 C 16.042969 26.375 15.96875 26.199219 15.867188 26.039062 C 15.914062 26.960938 15.988281 27.886719 16.027344 28.808594 C 15.5 28.914062 14.988281 29.085938 14.460938 29.179688 L 14.457031 29.230469 C 14.394531 29.234375 14.328125 29.238281 14.265625 29.246094 C 14.144531 29.023438 13.992188 28.820312 13.855469 28.605469 C 13.800781 28.515625 13.746094 28.433594 13.6875 28.347656 C 13.546875 28.191406 13.46875 27.988281 13.324219 27.835938 C 13.121094 27.5 12.878906 27.1875 12.664062 26.859375 C 12.539062 26.683594 12.425781 26.5 12.28125 26.339844 C 12.207031 26.214844 12.128906 26.09375 12.046875 25.972656 C 11.917969 25.816406 11.789062 25.652344 11.691406 25.46875 C 11.515625 25.441406 11.34375 25.503906 11.183594 25.570312 C 11.070312 25.304688 10.976562 25.027344 10.84375 24.769531 C 10.835938 24.710938 10.828125 24.65625 10.824219 24.601562 C 10.902344 24.582031 10.980469 24.558594 11.058594 24.535156 C 11.132812 24.523438 11.207031 24.511719 11.28125 24.5 C 11.691406 24.332031 12.140625 24.265625 12.558594 24.121094 C 12.652344 24.101562 12.746094 24.082031 12.839844 24.0625 C 12.933594 24.042969 13.027344 24.027344 13.113281 23.988281 C 13.203125 23.96875 13.292969 23.945312 13.386719 23.925781 C 13.441406 23.917969 13.550781 23.902344 13.605469 23.894531 C 13.679688 24.0625 13.75 24.238281 13.789062 24.421875 C 13.855469 24.550781 13.90625 24.691406 13.921875 24.839844 C 13.765625 24.863281 13.613281 24.902344 13.464844 24.957031 C 13.59375 25.195312 13.738281 25.421875 13.875 25.65625 C 13.917969 25.742188 13.96875 25.828125 14.023438 25.914062 C 14.117188 26.070312 14.195312 26.238281 14.304688 26.386719 C 14.378906 26.535156 14.464844 26.675781 14.535156 26.824219 C 14.570312 26.886719 14.605469 26.945312 14.636719 27.007812 C 14.675781 27.117188 14.730469 27.21875 14.800781 27.3125 C 14.6875 26.589844 14.609375 25.863281 14.585938 25.132812 L 14.53125 25.132812 C 14.535156 24.636719 14.5 24.140625 14.503906 23.648438 C 14.707031 23.625 14.90625 23.570312 15.097656 23.503906 C 15.214844 23.496094 15.335938 23.480469 15.453125 23.46875 C 15.71875 23.355469 16.007812 23.359375 16.285156 23.296875 C 16.316406 23.371094 16.347656 23.449219 16.382812 23.527344 C 16.601562 23.886719 16.8125 24.25 17.003906 24.625 C 17.082031 24.757812 17.152344 24.898438 17.238281 25.03125 C 17.277344 25.121094 17.324219 25.210938 17.378906 25.292969 C 17.40625 25.375 17.453125 25.449219 17.5 25.515625 C 17.65625 25.902344 17.832031 26.28125 18.003906 26.660156 C 17.945312 26.417969 17.972656 26.164062 17.902344 25.925781 C 17.855469 25.296875 17.878906 24.664062 17.875 24.035156 C 17.773438 24.042969 17.671875 24.039062 17.578125 24.085938 C 17.539062 24.089844 17.453125 24.097656 17.414062 24.105469 C 17.394531 24.003906 17.378906 23.90625 17.339844 23.8125 C 17.324219 23.777344 17.296875 23.707031 17.285156 23.671875 C 17.261719 23.476562 17.203125 23.285156 17.164062 23.09375 C 17.570312 23.042969 17.980469 22.984375 18.378906 22.890625 C 18.546875 22.875 18.714844 22.867188 18.878906 22.855469 M 26.203125 23.53125 C 26.46875 23.476562 26.742188 23.480469 27.007812 23.523438 C 27.363281 23.597656 27.660156 23.824219 27.863281 24.121094 C 27.878906 24.15625 27.90625 24.230469 27.921875 24.265625 C 27.980469 24.421875 28.015625 24.585938 28.054688 24.746094 C 28.082031 25.304688 28.054688 25.863281 28.078125 26.417969 C 28.195312 26.414062 28.3125 26.414062 28.429688 26.414062 C 28.429688 26.746094 28.425781 27.078125 28.433594 27.40625 C 27.792969 27.46875 27.148438 27.425781 26.503906 27.453125 C 26.488281 26.664062 26.398438 25.878906 26.367188 25.089844 C 26.378906 24.925781 26.253906 24.816406 26.148438 24.714844 C 25.976562 24.730469 25.753906 24.652344 25.632812 24.8125 C 25.417969 25.007812 25.464844 25.316406 25.472656 25.578125 C 25.476562 25.882812 25.527344 26.183594 25.550781 26.488281 C 25.609375 26.484375 25.730469 26.480469 25.789062 26.476562 C 25.886719 26.449219 25.988281 26.4375 26.089844 26.433594 C 26.101562 26.777344 26.164062 27.117188 26.167969 27.460938 C 25.367188 27.453125 24.574219 27.582031 23.777344 27.597656 C 23.792969 27.25 23.664062 26.921875 23.675781 26.574219 C 23.777344 26.574219 23.875 26.570312 23.976562 26.570312 C 23.957031 25.996094 23.84375 25.429688 23.824219 24.855469 C 23.71875 24.804688 23.605469 24.796875 23.496094 24.851562 C 23.414062 24.679688 23.425781 24.492188 23.414062 24.308594 L 23.363281 24.3125 C 23.359375 24.148438 23.351562 23.984375 23.339844 23.824219 C 23.949219 23.785156 24.558594 23.726562 25.167969 23.726562 C 25.179688 23.761719 25.199219 23.835938 25.210938 23.875 C 25.273438 23.957031 25.316406 24.046875 25.359375 24.144531 C 25.40625 24.09375 25.453125 24.042969 25.5 23.992188 C 25.542969 23.941406 25.589844 23.894531 25.632812 23.84375 C 25.804688 23.710938 26 23.601562 26.203125 23.53125 M 31.273438 23.789062 C 31.851562 23.4375 32.695312 23.53125 33.160156 24.03125 L 33.195312 24.039062 C 33.230469 24.117188 33.277344 24.195312 33.332031 24.265625 C 33.496094 24.734375 33.417969 25.238281 33.390625 25.722656 C 33.34375 26.019531 33.320312 26.324219 33.269531 26.625 C 33.402344 26.632812 33.539062 26.640625 33.671875 26.648438 C 33.574219 26.960938 33.554688 27.292969 33.523438 27.617188 C 33.089844 27.585938 32.652344 27.621094 32.222656 27.539062 C 32.003906 27.503906 31.769531 27.554688 31.558594 27.464844 C 31.570312 27.324219 31.578125 27.183594 31.578125 27.046875 L 31.628906 27.046875 C 31.636719 26.371094 31.753906 25.699219 31.722656 25.023438 C 31.730469 24.871094 31.585938 24.800781 31.484375 24.71875 C 31.378906 24.71875 31.273438 24.71875 31.167969 24.71875 C 31.097656 24.773438 31.027344 24.824219 30.957031 24.875 C 30.941406 24.910156 30.90625 24.980469 30.890625 25.015625 C 30.742188 25.316406 30.839844 25.664062 30.773438 25.980469 C 30.765625 26.132812 30.757812 26.285156 30.753906 26.4375 C 30.851562 26.441406 30.949219 26.449219 31.046875 26.472656 C 31.128906 26.480469 31.214844 26.484375 31.296875 26.492188 C 31.285156 26.820312 31.257812 27.148438 31.234375 27.476562 C 30.535156 27.453125 29.835938 27.441406 29.132812 27.4375 C 29.035156 27.441406 28.9375 27.425781 28.84375 27.402344 C 28.875 27.046875 28.804688 26.675781 28.914062 26.332031 C 28.960938 26.496094 29.121094 26.375 29.222656 26.363281 C 29.21875 25.789062 29.230469 25.214844 29.238281 24.640625 C 29.117188 24.640625 28.992188 24.644531 28.882812 24.585938 C 28.914062 24.265625 28.90625 23.941406 28.90625 23.617188 C 29.511719 23.621094 30.121094 23.628906 30.726562 23.644531 C 30.765625 23.785156 30.804688 23.929688 30.835938 24.074219 C 31.007812 24.023438 31.117188 23.871094 31.273438 23.789062 M 43.488281 23.953125 C 43.566406 23.960938 43.644531 23.972656 43.722656 23.984375 C 43.8125 24.039062 43.917969 24.042969 44.019531 24.050781 L 44.027344 24.09375 C 44.113281 24.097656 44.195312 24.105469 44.28125 24.113281 C 44.457031 24.21875 44.675781 24.214844 44.867188 24.285156 C 45.082031 24.363281 45.304688 24.417969 45.53125 24.460938 C 45.527344 24.484375 45.523438 24.539062 45.519531 24.566406 C 45.386719 24.828125 45.285156 25.109375 45.175781 25.386719 C 45.140625 25.449219 45.113281 25.515625 45.085938 25.585938 C 45.054688 25.679688 45.015625 25.773438 44.96875 25.867188 C 44.953125 25.898438 44.914062 25.964844 44.894531 25.996094 C 44.757812 26.164062 44.652344 26.351562 44.519531 26.523438 C 44.4375 26.644531 44.359375 26.769531 44.28125 26.894531 C 44.136719 27.101562 43.992188 27.3125 43.859375 27.527344 C 43.808594 27.523438 43.761719 27.515625 43.710938 27.507812 C 43.398438 27.445312 43.097656 27.328125 42.785156 27.265625 C 42.824219 26.839844 42.925781 26.421875 42.945312 25.996094 C 42.992188 25.746094 42.945312 25.476562 43.058594 25.242188 C 43.0625 25.203125 43.078125 25.121094 43.085938 25.085938 C 43.117188 25 43.152344 24.917969 43.191406 24.835938 C 43.21875 24.734375 43.25 24.636719 43.28125 24.535156 C 43.375 24.347656 43.414062 24.144531 43.488281 23.953125 M 20.929688 24.085938 C 21.148438 24.003906 21.386719 24.082031 21.601562 23.988281 C 21.832031 23.964844 22.066406 23.957031 22.300781 23.945312 C 22.378906 24.359375 22.4375 24.78125 22.46875 25.203125 L 22.519531 25.199219 C 22.53125 25.535156 22.597656 25.867188 22.621094 26.203125 C 22.671875 26.339844 22.679688 26.492188 22.683594 26.640625 C 22.71875 26.652344 22.785156 26.671875 22.820312 26.683594 C 22.882812 26.675781 23.007812 26.660156 23.070312 26.648438 C 23.074219 26.734375 23.082031 26.820312 23.089844 26.90625 L 23.140625 26.910156 C 23.152344 27.160156 23.175781 27.410156 23.171875 27.660156 C 23.039062 27.660156 22.902344 27.660156 22.777344 27.707031 C 22.191406 27.71875 21.621094 27.867188 21.039062 27.894531 C 21.027344 27.761719 21.027344 27.625 20.96875 27.503906 C 20.957031 27.421875 20.949219 27.339844 20.945312 27.257812 L 20.902344 27.25 C 20.898438 27.132812 20.890625 27.019531 20.878906 26.90625 C 20.980469 26.863281 21.085938 26.855469 21.195312 26.851562 C 21.128906 26.492188 21.035156 26.140625 21.007812 25.773438 C 20.957031 25.667969 20.949219 25.546875 20.933594 25.433594 C 20.898438 25.332031 20.894531 25.222656 20.890625 25.117188 C 20.773438 25.128906 20.652344 25.136719 20.535156 25.144531 L 20.550781 25.0625 L 20.488281 25.0625 C 20.464844 24.746094 20.414062 24.429688 20.335938 24.121094 C 20.535156 24.109375 20.734375 24.101562 20.929688 24.085938 M 35.417969 24.113281 C 35.496094 24.105469 35.570312 24.09375 35.644531 24.085938 C 36.453125 23.925781 37.355469 24.109375 37.957031 24.691406 C 38.210938 24.992188 38.382812 25.386719 38.335938 25.785156 C 38.273438 26.101562 38.210938 26.421875 38.046875 26.699219 C 37.847656 26.675781 37.652344 26.644531 37.457031 26.628906 L 37.453125 26.582031 C 37.136719 26.574219 36.832031 26.503906 36.519531 26.480469 C 36.203125 26.398438 35.871094 26.375 35.542969 26.359375 C 35.542969 26.386719 35.546875 26.449219 35.546875 26.476562 C 35.601562 26.585938 35.648438 26.699219 35.691406 26.8125 C 35.769531 26.851562 35.839844 26.902344 35.902344 26.964844 C 36.320312 27.082031 36.761719 27.070312 37.179688 26.96875 L 37.1875 26.925781 C 37.226562 26.910156 37.304688 26.871094 37.34375 26.855469 C 37.363281 26.855469 37.410156 26.855469 37.433594 26.855469 C 37.464844 26.933594 37.496094 27.007812 37.535156 27.082031 C 37.640625 27.289062 37.839844 27.46875 37.871094 27.703125 C 37.679688 27.804688 37.480469 27.894531 37.273438 27.953125 C 37.128906 28.035156 36.957031 28.042969 36.796875 28.066406 C 36.339844 28.09375 35.875 28.09375 35.425781 27.988281 C 35.230469 27.878906 35 27.835938 34.832031 27.679688 C 34.777344 27.644531 34.722656 27.613281 34.667969 27.578125 C 34.601562 27.507812 34.53125 27.4375 34.457031 27.371094 C 34.367188 27.25 34.269531 27.128906 34.230469 26.980469 L 34.179688 26.976562 C 33.980469 26.394531 33.941406 25.722656 34.222656 25.164062 C 34.277344 25.011719 34.371094 24.875 34.460938 24.746094 C 34.648438 24.558594 34.851562 24.390625 35.078125 24.257812 C 35.195312 24.222656 35.316406 24.183594 35.417969 24.113281 M 35.710938 25.601562 C 36.109375 25.617188 36.503906 25.699219 36.898438 25.757812 C 36.894531 25.570312 36.933594 25.339844 36.765625 25.210938 C 36.601562 25.113281 36.40625 25.105469 36.226562 25.058594 L 36.214844 25.117188 C 35.941406 25.109375 35.765625 25.359375 35.710938 25.601562 M 39.113281 25.292969 C 39.167969 25.054688 39.253906 24.820312 39.304688 24.582031 C 39.589844 24.671875 39.894531 24.707031 40.195312 24.730469 L 40.195312 24.777344 C 40.417969 24.804688 40.636719 24.851562 40.859375 24.882812 C 40.875 24.953125 40.894531 25.023438 40.917969 25.089844 C 40.9375 25.207031 40.957031 25.324219 40.96875 25.441406 C 40.980469 25.414062 40.996094 25.371094 41.003906 25.34375 C 41.136719 25.269531 41.246094 25.164062 41.386719 25.097656 C 41.722656 24.921875 42.128906 24.992188 42.484375 25.058594 C 42.457031 25.117188 42.429688 25.175781 42.402344 25.230469 C 42.332031 25.492188 42.203125 25.738281 42.152344 26.003906 C 42.101562 26.125 42.046875 26.242188 42.03125 26.375 C 41.777344 26.371094 41.539062 26.285156 41.285156 26.292969 L 41.285156 26.351562 C 41.203125 26.359375 41.117188 26.367188 41.035156 26.375 C 40.945312 26.449219 40.851562 26.519531 40.785156 26.617188 C 40.621094 26.957031 40.476562 27.328125 40.457031 27.707031 C 40.566406 27.75 40.792969 27.667969 40.816406 27.839844 C 40.636719 28.128906 40.613281 28.496094 40.441406 28.796875 C 40.429688 28.773438 40.402344 28.722656 40.390625 28.699219 C 40.039062 28.691406 39.710938 28.558594 39.367188 28.503906 C 39.023438 28.457031 38.699219 28.332031 38.351562 28.324219 C 38.378906 28.1875 38.40625 28.046875 38.441406 27.910156 C 38.472656 27.839844 38.492188 27.765625 38.503906 27.6875 C 38.546875 27.566406 38.550781 27.4375 38.5625 27.3125 C 38.691406 27.328125 38.820312 27.351562 38.949219 27.386719 C 38.976562 27.234375 39.011719 27.085938 39.050781 26.9375 C 39.121094 26.753906 39.15625 26.558594 39.175781 26.363281 L 39.21875 26.363281 C 39.261719 26.113281 39.320312 25.871094 39.40625 25.632812 C 39.296875 25.621094 39.183594 25.605469 39.070312 25.59375 C 39.085938 25.492188 39.101562 25.394531 39.113281 25.292969 M 10.785156 26.15625 C 10.917969 26.226562 11.070312 26.238281 11.214844 26.277344 C 11.226562 26.402344 11.164062 26.527344 11.140625 26.652344 L 11.128906 26.550781 C 11.101562 26.753906 10.933594 26.875 10.839844 27.042969 C 10.816406 27.203125 10.824219 27.371094 10.820312 27.535156 C 10.5625 28.324219 10.398438 29.140625 10.265625 29.957031 C 9.605469 29.785156 9.273438 29.03125 9.335938 28.394531 C 9.4375 27.472656 10.066406 26.695312 10.785156 26.15625 M 45.050781 27.027344 C 45.195312 26.796875 45.367188 26.582031 45.507812 26.347656 C 46.1875 26.96875 46.804688 27.824219 46.683594 28.792969 C 46.652344 29.320312 46.28125 29.796875 45.785156 29.96875 C 45.613281 28.972656 45.398438 27.980469 45.050781 27.027344 M 42.203125 27.902344 C 42.421875 27.742188 42.691406 27.644531 42.964844 27.675781 C 43.058594 27.703125 43.152344 27.726562 43.25 27.75 C 43.425781 27.84375 43.585938 27.960938 43.714844 28.117188 C 43.78125 28.351562 43.804688 28.621094 43.699219 28.847656 C 43.59375 29.019531 43.421875 29.132812 43.25 29.230469 C 43.179688 29.246094 43.109375 29.265625 43.039062 29.289062 C 42.898438 29.300781 42.761719 29.296875 42.628906 29.273438 C 42.46875 29.242188 42.332031 29.164062 42.199219 29.078125 C 42.152344 29.027344 42.105469 28.976562 42.058594 28.929688 C 42.039062 28.898438 42.007812 28.832031 41.988281 28.800781 C 41.933594 28.664062 41.894531 28.515625 41.910156 28.363281 C 41.949219 28.285156 41.980469 28.199219 42.019531 28.117188 C 42.078125 28.042969 42.140625 27.972656 42.203125 27.902344 Z M 42.203125 27.902344 "/>
<path style=" stroke:none;fill-rule:nonzero;fill:rgb(33.72549%,63.529412%,25.098039%);fill-opacity:1;" d="M 24.882812 5.441406 C 25.300781 5.140625 25.714844 4.730469 26.257812 4.71875 C 26.90625 4.738281 27.59375 4.835938 28.125 5.234375 C 28.421875 5.421875 28.640625 5.703125 28.839844 5.984375 L 28.839844 6.011719 C 28.839844 6.210938 28.820312 6.410156 28.792969 6.609375 C 28.226562 6.519531 27.660156 6.382812 27.085938 6.394531 C 26.378906 6.4375 25.628906 6.542969 25.042969 6.96875 C 24.875 7.128906 24.65625 7.453125 24.894531 7.644531 C 25.007812 7.425781 25.085938 7.152344 25.332031 7.046875 C 26.1875 6.589844 27.207031 6.558594 28.148438 6.722656 C 28.777344 6.867188 29.4375 7.089844 29.882812 7.582031 C 30.132812 7.847656 30.085938 8.238281 30.09375 8.574219 C 29.753906 8.328125 29.46875 8.011719 29.09375 7.828125 C 28.617188 7.597656 28.085938 7.515625 27.566406 7.441406 C 27.128906 7.371094 26.695312 7.484375 26.261719 7.53125 C 25.640625 7.617188 25.242188 8.148438 24.746094 8.46875 C 24.484375 8.433594 24.253906 8.277344 23.996094 8.222656 C 23.308594 8.0625 22.617188 8.25 21.945312 8.390625 C 21.5625 8.46875 21.191406 8.695312 21.042969 9.070312 C 20.847656 9.542969 20.699219 10.058594 20.753906 10.574219 C 20.796875 10.960938 21.105469 11.265625 21.476562 11.351562 C 21.460938 11.015625 21.039062 10.9375 20.988281 10.617188 C 20.921875 10.167969 21.03125 9.707031 21.207031 9.292969 C 21.3125 9.058594 21.441406 8.796875 21.703125 8.714844 C 22.433594 8.457031 23.234375 8.308594 24.003906 8.460938 C 24.480469 8.640625 24.992188 8.878906 25.292969 9.308594 C 25.511719 9.792969 25.066406 10.21875 25.046875 10.683594 C 25.328125 10.554688 25.394531 10.25 25.550781 10.015625 C 26.046875 9.605469 26.695312 9.308594 27.355469 9.402344 C 27.984375 9.519531 28.550781 9.839844 29.144531 10.074219 C 29.179688 10.046875 29.253906 9.996094 29.292969 9.96875 C 29.023438 9.691406 28.640625 9.601562 28.296875 9.464844 C 27.902344 9.335938 27.511719 9.128906 27.085938 9.144531 C 26.542969 9.140625 26.074219 9.441406 25.59375 9.644531 C 25.597656 9.53125 25.601562 9.417969 25.601562 9.304688 C 26 9.109375 26.433594 9.019531 26.871094 8.976562 C 27.28125 8.9375 27.664062 9.105469 28.046875 9.21875 C 28.316406 9.3125 28.601562 9.371094 28.855469 9.503906 C 29.15625 9.695312 29.324219 10.066406 29.675781 10.179688 C 29.933594 10.234375 30.183594 10.105469 30.351562 9.917969 C 30.335938 9.753906 30.324219 9.574219 30.21875 9.4375 C 30.054688 9.195312 29.898438 8.945312 29.714844 8.71875 C 29.441406 8.382812 29.007812 8.21875 28.585938 8.171875 C 28.105469 8.144531 27.636719 7.972656 27.148438 8.015625 C 26.484375 8.070312 25.765625 8.144531 25.203125 8.539062 C 25.191406 8.585938 25.167969 8.671875 25.15625 8.71875 C 25.148438 8.746094 25.132812 8.800781 25.121094 8.828125 C 25.058594 8.773438 24.996094 8.71875 24.933594 8.664062 C 25.28125 8.347656 25.628906 8.003906 26.066406 7.808594 C 26.953125 7.570312 27.914062 7.621094 28.773438 7.945312 C 29.277344 8.128906 29.640625 8.53125 30.058594 8.847656 C 30.214844 8.972656 30.308594 9.195312 30.53125 9.199219 C 30.460938 8.980469 30.332031 8.769531 30.332031 8.53125 C 30.328125 8.269531 30.332031 8.003906 30.316406 7.742188 C 30.679688 7.601562 31.074219 7.601562 31.457031 7.5625 C 31.902344 7.511719 32.347656 7.574219 32.785156 7.636719 C 33.214844 7.8125 33.519531 8.171875 33.878906 8.449219 C 33.886719 8.605469 33.898438 8.761719 33.910156 8.921875 C 33.3125 8.824219 32.726562 8.558594 32.109375 8.644531 C 31.667969 8.710938 31.214844 8.789062 30.8125 8.988281 C 30.664062 9.054688 30.621094 9.222656 30.574219 9.359375 C 30.824219 9.316406 31.003906 9.109375 31.246094 9.042969 C 31.785156 8.882812 32.367188 8.78125 32.925781 8.921875 C 33.242188 9.003906 33.582031 9.042969 33.871094 9.207031 C 34.074219 9.332031 34.191406 9.550781 34.253906 9.773438 C 33.941406 9.605469 33.652344 9.390625 33.3125 9.28125 C 32.816406 9.082031 32.265625 9.140625 31.746094 9.1875 C 31.328125 9.253906 30.839844 9.320312 30.5625 9.679688 C 30.375 9.921875 30.476562 10.242188 30.546875 10.507812 C 30.320312 10.785156 30.445312 11.148438 30.648438 11.402344 C 30.925781 11.757812 31.128906 12.195312 31.53125 12.433594 C 31.683594 12.53125 31.871094 12.546875 32.046875 12.574219 C 32.03125 12.53125 31.996094 12.441406 31.980469 12.394531 C 31.433594 12.230469 31.140625 11.714844 30.855469 11.261719 C 31.257812 11.503906 31.675781 11.742188 32.144531 11.8125 C 32.507812 11.863281 32.867188 11.933594 33.226562 12.019531 C 33.4375 11.597656 33.8125 11.226562 34.28125 11.113281 C 34.695312 11.050781 35.140625 11.058594 35.511719 11.265625 C 35.804688 11.429688 36.179688 11.585938 36.269531 11.945312 C 36.390625 12.375 36.558594 12.851562 36.375 13.289062 C 36.257812 13.546875 36.128906 13.816406 35.914062 14.007812 C 35.609375 14.242188 35.246094 14.394531 34.867188 14.480469 C 34.886719 14.875 34.816406 15.269531 34.742188 15.65625 C 34.636719 15.855469 34.386719 15.816406 34.199219 15.828125 C 29.371094 15.828125 24.542969 15.832031 19.710938 15.828125 C 19.699219 15.3125 19.742188 14.796875 19.675781 14.289062 C 19.667969 12.984375 19.675781 11.683594 19.671875 10.382812 C 19.671875 10.273438 19.664062 10.160156 19.722656 10.0625 C 20.152344 9.292969 20.695312 8.589844 21.273438 7.929688 C 21.640625 7.597656 22.019531 7.261719 22.480469 7.066406 C 22.671875 6.976562 22.878906 6.929688 23.078125 6.855469 C 23.503906 6.699219 23.863281 6.417969 24.21875 6.144531 C 24.460938 5.929688 24.617188 5.628906 24.882812 5.441406 M 25.882812 9.894531 C 25.855469 10.03125 25.847656 10.183594 25.976562 10.269531 C 26.574219 10.960938 27.550781 11.003906 28.394531 11.03125 C 28.160156 11.214844 27.867188 11.300781 27.578125 11.363281 C 27.308594 11.417969 27.035156 11.332031 26.765625 11.371094 C 26.734375 11.445312 26.753906 11.5 26.820312 11.539062 C 27.105469 11.710938 27.453125 11.628906 27.757812 11.550781 C 28.351562 11.371094 28.917969 11.097656 29.398438 10.703125 C 29.402344 10.65625 29.40625 10.566406 29.40625 10.523438 C 29.128906 10.582031 28.875 10.734375 28.585938 10.742188 C 27.949219 10.792969 27.28125 10.777344 26.679688 10.523438 C 26.355469 10.394531 26.164062 10.085938 25.882812 9.894531 M 21.878906 10.492188 C 21.945312 10.535156 22.007812 10.578125 22.070312 10.621094 C 22.21875 10.5 22.394531 10.445312 22.582031 10.476562 C 22.972656 11.355469 23.582031 12.117188 24.269531 12.78125 C 24.605469 13.101562 24.984375 13.375 25.417969 13.542969 C 26.515625 13.980469 27.667969 14.25 28.800781 14.574219 C 29.9375 14.816406 31.125 15.105469 32.28125 14.800781 C 33.042969 14.628906 33.714844 14.160156 34.1875 13.539062 C 34.484375 13.730469 34.859375 13.796875 35.195312 13.691406 C 35.308594 13.652344 35.472656 13.617188 35.421875 13.457031 C 35.164062 13.398438 34.890625 13.628906 34.628906 13.511719 C 34.296875 13.371094 33.988281 13.160156 33.769531 12.867188 C 33.707031 12.765625 33.609375 12.71875 33.492188 12.75 C 33.488281 12.835938 33.484375 12.921875 33.480469 13.011719 C 32.679688 12.960938 31.917969 13.308594 31.117188 13.261719 C 29.945312 13.226562 28.773438 12.984375 27.699219 12.507812 C 27.339844 12.371094 26.980469 12.238281 26.644531 12.054688 C 25.734375 11.617188 24.84375 11.140625 23.972656 10.621094 C 23.941406 10.542969 23.910156 10.460938 23.878906 10.382812 C 23.464844 10.320312 23.0625 10.171875 22.636719 10.1875 C 22.355469 10.175781 22.089844 10.3125 21.878906 10.492188 M 25.242188 13.898438 C 25.257812 13.976562 25.238281 14.078125 25.320312 14.128906 C 25.882812 14.628906 26.519531 15.0625 27.238281 15.296875 C 28.042969 15.574219 28.894531 15.769531 29.746094 15.679688 C 29.972656 15.648438 30.253906 15.652344 30.378906 15.421875 C 30.011719 15.328125 29.644531 15.496094 29.277344 15.464844 C 28.539062 15.410156 27.789062 15.3125 27.113281 14.996094 C 26.519531 14.726562 25.890625 14.433594 25.480469 13.90625 C 25.402344 13.902344 25.320312 13.902344 25.242188 13.898438 M 30.019531 5.753906 C 30.382812 5.691406 30.753906 5.628906 31.125 5.667969 C 31.441406 5.714844 31.734375 5.847656 32.011719 5.996094 C 32.164062 6.085938 32.332031 6.183594 32.410156 6.347656 C 32.570312 6.667969 32.671875 7.011719 32.769531 7.351562 C 32.46875 7.199219 32.128906 7.320312 31.804688 7.304688 C 31.265625 7.277344 30.722656 7.371094 30.214844 7.554688 C 29.886719 7.199219 29.480469 6.929688 29.039062 6.734375 C 29.03125 6.640625 29.019531 6.546875 29.011719 6.453125 C 29.074219 6.359375 29.105469 6.253906 29.121094 6.144531 C 29.375 5.925781 29.691406 5.800781 30.019531 5.753906 M 32.859375 9.371094 C 33.074219 9.347656 33.222656 9.527344 33.429688 9.527344 C 33.558594 9.523438 33.492188 9.679688 33.507812 9.753906 C 33.421875 9.734375 33.335938 9.710938 33.25 9.6875 C 33.195312 9.632812 33.144531 9.574219 33.09375 9.519531 C 32.953125 9.707031 32.859375 9.507812 32.859375 9.371094 M 30.640625 10.496094 C 30.851562 10.421875 31.023438 10.238281 31.257812 10.246094 C 31.476562 10.25 31.726562 10.207031 31.90625 10.355469 C 32.253906 10.605469 32.710938 10.503906 33.109375 10.601562 C 33.324219 10.664062 33.601562 10.558594 33.773438 10.742188 C 33.871094 10.808594 33.828125 10.933594 33.832031 11.03125 C 33.636719 10.988281 33.421875 10.941406 33.246094 11.0625 C 33.328125 11.128906 33.410156 11.195312 33.496094 11.261719 C 33.375 11.410156 33.25 11.558594 33.128906 11.707031 C 32.351562 11.679688 31.523438 11.523438 30.925781 10.988281 C 30.769531 10.867188 30.683594 10.683594 30.640625 10.496094 Z M 30.640625 10.496094 "/>
<path style=" stroke:none;fill-rule:nonzero;fill:rgb(27.843137%,25.098039%,23.529412%);fill-opacity:1;" d="M 30.652344 9.8125 C 30.777344 9.855469 30.875 9.960938 30.898438 10.09375 C 30.847656 10.179688 30.722656 10.195312 30.640625 10.246094 C 30.640625 10.101562 30.644531 9.957031 30.652344 9.8125 M 34.199219 15.828125 C 34.386719 15.816406 34.636719 15.855469 34.742188 15.65625 C 34.734375 15.695312 34.722656 15.769531 34.71875 15.808594 L 34.980469 15.808594 C 38.210938 15.808594 41.445312 15.800781 44.675781 15.8125 C 45.773438 15.789062 46.738281 16.980469 46.402344 18.042969 C 46.242188 18.597656 45.808594 19.0625 45.269531 19.261719 C 44.726562 19.46875 44.140625 19.355469 43.578125 19.382812 C 43.125 19.347656 42.644531 19.476562 42.324219 19.808594 C 41.992188 20.144531 41.839844 20.660156 41.96875 21.117188 C 42.03125 21.523438 42.328125 21.820312 42.558594 22.140625 C 42.835938 22.5 43.058594 22.902344 43.359375 23.242188 C 43.195312 23.3125 43.011719 23.378906 42.917969 23.539062 C 42.765625 23.792969 42.695312 24.082031 42.625 24.367188 C 42.214844 24.265625 41.785156 24.195312 41.382812 24.359375 C 40.75 24.058594 40.023438 24.105469 39.382812 23.84375 C 38.003906 23.324219 36.574219 22.960938 35.132812 22.667969 C 33.609375 22.332031 32.058594 22.164062 30.511719 21.992188 C 29.082031 21.894531 27.644531 21.742188 26.210938 21.878906 C 25.628906 21.960938 25.03125 21.949219 24.449219 22.039062 C 23.910156 22.128906 23.363281 22.128906 22.832031 22.257812 C 22.609375 21.917969 22.289062 21.617188 21.882812 21.523438 C 21.207031 21.285156 20.390625 21.515625 19.9375 22.074219 C 19.542969 21.929688 19.140625 22.109375 18.738281 22.140625 C 18.183594 22.234375 17.625 22.3125 17.074219 22.417969 C 16.894531 22.441406 16.746094 22.546875 16.605469 22.65625 C 16.425781 22.617188 16.242188 22.558594 16.054688 22.605469 C 15.488281 22.730469 14.917969 22.855469 14.34375 22.972656 C 14.125 23.007812 13.972656 23.230469 13.738281 23.199219 C 13.285156 23.15625 12.863281 23.363281 12.421875 23.4375 C 12.9375 23.144531 13.164062 22.574219 13.511719 22.121094 C 13.757812 21.804688 14.027344 21.46875 14.089844 21.058594 C 14.171875 20.761719 14.066406 20.457031 13.96875 20.175781 C 13.847656 19.859375 13.550781 19.65625 13.269531 19.492188 C 13.015625 19.347656 12.71875 19.386719 12.441406 19.378906 C 11.894531 19.371094 11.335938 19.429688 10.804688 19.273438 C 10.007812 19.003906 9.464844 18.136719 9.613281 17.304688 C 9.753906 16.515625 10.457031 15.847656 11.269531 15.828125 C 14.085938 15.824219 16.898438 15.828125 19.710938 15.828125 C 24.542969 15.832031 29.371094 15.828125 34.199219 15.828125 M 8.324219 27.347656 C 8.703125 26.417969 9.386719 25.636719 10.191406 25.046875 C 10.390625 25.414062 10.457031 25.863281 10.785156 26.15625 C 10.066406 26.695312 9.4375 27.472656 9.335938 28.394531 C 9.273438 29.03125 9.605469 29.785156 10.265625 29.957031 C 10.398438 29.136719 10.5625 28.324219 10.820312 27.535156 C 10.839844 28.738281 10.828125 29.941406 10.824219 31.148438 C 10.597656 31.199219 10.367188 31.242188 10.140625 31.296875 C 10.058594 31.148438 9.871094 31.148438 9.734375 31.082031 C 9.144531 30.832031 8.644531 30.363281 8.371094 29.78125 C 8.015625 29.023438 8.023438 28.125 8.324219 27.347656 M 45.507812 26.347656 C 45.734375 25.976562 45.847656 25.550781 46.050781 25.167969 C 46.761719 25.742188 47.378906 26.464844 47.710938 27.320312 C 47.992188 28.023438 48.027344 28.828125 47.800781 29.546875 C 47.507812 30.367188 46.789062 30.976562 45.964844 31.21875 C 45.941406 31.300781 45.898438 31.367188 45.835938 31.414062 C 45.59375 31.347656 45.351562 31.265625 45.097656 31.253906 C 45.027344 30.800781 45.066406 30.34375 45.050781 29.890625 C 45.054688 28.933594 45.007812 27.980469 45.050781 27.027344 C 45.398438 27.980469 45.613281 28.972656 45.785156 29.96875 C 46.28125 29.796875 46.652344 29.320312 46.683594 28.792969 C 46.804688 27.824219 46.1875 26.96875 45.507812 26.347656 M 24.347656 29.070312 C 25.136719 28.945312 25.941406 28.941406 26.738281 28.882812 C 27.054688 28.84375 27.378906 28.824219 27.699219 28.84375 C 28.449219 28.914062 29.207031 28.90625 29.960938 28.957031 C 30.601562 28.972656 31.234375 29.09375 31.875 29.132812 C 34.054688 29.382812 36.21875 29.804688 38.316406 30.460938 C 38.636719 30.570312 38.980469 30.632812 39.285156 30.792969 C 39.339844 30.980469 39.25 31.191406 39.226562 31.386719 C 39.054688 32.402344 38.898438 33.425781 38.703125 34.4375 C 38.652344 34.753906 38.785156 35.113281 39.0625 35.285156 C 39.457031 35.542969 39.917969 35.675781 40.371094 35.773438 C 41.253906 35.945312 42.140625 36.089844 43.035156 36.128906 C 43.621094 36.207031 44.210938 36.273438 44.796875 36.363281 C 45.046875 36.394531 45.296875 36.421875 45.539062 36.484375 C 45.121094 38.152344 44.417969 39.753906 43.402344 41.140625 C 42.738281 42.109375 41.90625 42.945312 41.015625 43.703125 C 40.691406 43.988281 40.304688 44.203125 40 44.511719 C 39.949219 44.859375 40.011719 45.210938 40.019531 45.5625 C 40.003906 46.578125 40.101562 47.621094 39.796875 48.609375 C 39.710938 48.859375 39.570312 49.132812 39.300781 49.226562 C 39.03125 49.273438 38.734375 49.253906 38.503906 49.089844 C 37.492188 48.425781 36.945312 47.308594 36.203125 46.390625 C 35.25 46.777344 34.246094 47.019531 33.25 47.25 C 32.164062 47.484375 31.058594 47.597656 29.957031 47.703125 C 29.789062 47.8125 29.777344 48.050781 29.707031 48.222656 C 29.503906 48.757812 29.277344 49.316406 28.839844 49.703125 C 28.554688 49.867188 28.195312 49.84375 27.945312 49.628906 C 27.390625 49.144531 27.183594 48.410156 26.878906 47.769531 C 26.195312 47.695312 25.515625 47.613281 24.828125 47.558594 C 24.488281 47.484375 24.136719 47.492188 23.796875 47.402344 C 22.671875 47.246094 21.59375 46.878906 20.492188 46.636719 C 19.863281 47.519531 19.292969 48.480469 18.378906 49.105469 C 18.136719 49.273438 17.816406 49.269531 17.539062 49.214844 C 17.019531 48.890625 16.988281 48.222656 16.894531 47.679688 C 16.796875 46.816406 16.886719 45.949219 16.867188 45.082031 C 16.871094 45.011719 16.84375 44.957031 16.785156 44.921875 C 15.574219 44.15625 14.460938 43.230469 13.492188 42.175781 C 12.015625 40.546875 11 38.527344 10.492188 36.394531 C 11.175781 36.261719 11.871094 36.160156 12.5625 36.085938 C 13.09375 36.050781 13.617188 35.972656 14.148438 35.925781 C 15.050781 35.78125 16.007812 35.703125 16.816406 35.226562 C 17.148438 35.054688 17.269531 34.625 17.191406 34.277344 C 17.0625 33.566406 16.949219 32.855469 16.828125 32.144531 C 16.765625 31.617188 16.617188 31.097656 16.589844 30.566406 C 19.121094 29.832031 21.722656 29.324219 24.347656 29.070312 Z M 24.347656 29.070312 "/>
<path style=" stroke:none;fill-rule:nonzero;fill:rgb(92.941176%,11.764706%,11.764706%);fill-opacity:1;" d="M 22.785156 10.480469 C 22.902344 10.484375 23.085938 10.410156 23.136719 10.558594 C 23.507812 11.21875 23.898438 11.933594 24.582031 12.316406 C 25.007812 12.53125 25.453125 12.707031 25.90625 12.859375 C 26.636719 13.070312 27.351562 13.332031 28.089844 13.527344 C 28.929688 13.746094 29.769531 13.988281 30.636719 14.097656 C 30.957031 14.136719 31.273438 14.035156 31.59375 14.027344 C 32.332031 13.90625 33.074219 13.789062 33.804688 13.617188 C 33.476562 14.113281 32.90625 14.382812 32.359375 14.5625 C 32.050781 14.6875 31.714844 14.652344 31.394531 14.714844 C 31.167969 14.753906 30.941406 14.683594 30.714844 14.667969 C 29.824219 14.648438 28.972656 14.347656 28.109375 14.15625 C 27.5 13.992188 26.886719 13.828125 26.289062 13.621094 C 25.753906 13.457031 25.214844 13.257812 24.773438 12.902344 C 23.921875 12.269531 23.332031 11.375 22.785156 10.480469 M 23.394531 10.523438 C 23.699219 10.6875 23.960938 10.921875 24.269531 11.078125 C 25.628906 11.800781 26.980469 12.574219 28.460938 13.035156 C 29.410156 13.320312 30.398438 13.507812 31.390625 13.488281 C 31.878906 13.476562 32.359375 13.359375 32.835938 13.261719 C 33.136719 13.1875 33.453125 13.210938 33.757812 13.148438 C 33.765625 13.222656 33.769531 13.300781 33.773438 13.378906 C 33.28125 13.578125 32.746094 13.621094 32.226562 13.707031 C 31.855469 13.753906 31.492188 13.839844 31.117188 13.839844 C 30.296875 13.890625 29.496094 13.671875 28.707031 13.480469 C 28.253906 13.375 27.816406 13.214844 27.367188 13.089844 C 26.503906 12.808594 25.613281 12.589844 24.796875 12.1875 C 24.125 11.847656 23.71875 11.171875 23.394531 10.523438 M 24.449219 22.039062 C 25.03125 21.949219 25.628906 21.960938 26.210938 21.878906 C 27.644531 21.742188 29.082031 21.894531 30.511719 21.992188 C 32.058594 22.164062 33.609375 22.332031 35.132812 22.667969 C 36.574219 22.960938 38.003906 23.324219 39.382812 23.84375 C 39.074219 23.902344 38.78125 24.039062 38.617188 24.320312 C 37.726562 23.351562 36.234375 23.074219 35.015625 23.507812 C 34.644531 23.628906 34.34375 23.882812 34.046875 24.128906 C 33.9375 23.875 33.816406 23.617188 33.609375 23.433594 C 33.113281 22.972656 32.394531 22.824219 31.738281 22.890625 C 31.476562 22.90625 31.226562 23.070312 30.960938 22.996094 C 30.5 22.871094 30.023438 22.917969 29.550781 22.890625 C 29.246094 22.890625 28.933594 22.855469 28.640625 22.957031 C 28.4375 23.023438 28.320312 23.210938 28.199219 23.371094 C 27.722656 22.914062 27.039062 22.738281 26.394531 22.785156 C 26.082031 22.808594 25.800781 22.949219 25.503906 23.019531 C 25.207031 23.023438 24.910156 22.96875 24.617188 22.996094 C 24.074219 23.042969 23.515625 23.011719 22.992188 23.195312 C 23.011719 22.875 22.96875 22.546875 22.832031 22.257812 C 23.363281 22.128906 23.910156 22.128906 24.449219 22.039062 M 19.976562 25.625 C 20.078125 25.6875 20.179688 25.746094 20.28125 25.808594 C 20.304688 25.980469 20.34375 26.15625 20.332031 26.332031 C 20.28125 26.558594 20.125 26.769531 20.160156 27.015625 C 20.1875 27.269531 20.261719 27.515625 20.296875 27.765625 C 20.339844 28.007812 20.386719 28.277344 20.585938 28.445312 C 20.8125 28.628906 21.125 28.644531 21.402344 28.59375 C 21.992188 28.492188 22.59375 28.480469 23.183594 28.367188 C 23.632812 28.273438 24.097656 28.34375 24.546875 28.273438 C 25.09375 28.183594 25.648438 28.214844 26.199219 28.175781 C 27.019531 28.144531 27.839844 28.179688 28.660156 28.125 C 29.34375 28.171875 30.027344 28.15625 30.710938 28.191406 C 31.671875 28.164062 32.617188 28.371094 33.578125 28.34375 C 33.796875 28.34375 33.964844 28.195312 34.121094 28.070312 C 34.855469 28.691406 35.863281 28.890625 36.804688 28.792969 C 37.082031 28.765625 37.347656 28.640625 37.625 28.628906 C 37.789062 28.707031 37.890625 28.894531 38.070312 28.957031 C 38.484375 29.105469 38.929688 29.132812 39.355469 29.242188 C 39.78125 29.316406 40.203125 29.464844 40.640625 29.441406 C 40.949219 29.433594 41.113281 29.132812 41.226562 28.886719 C 41.308594 29.101562 41.40625 29.320312 41.566406 29.492188 C 41.792969 29.742188 42.101562 29.890625 42.394531 30.042969 C 42.398438 30.699219 42.398438 31.355469 42.394531 32.011719 C 41.835938 31.847656 41.339844 31.523438 40.773438 31.386719 C 40.734375 32.015625 40.761719 32.648438 40.753906 33.277344 C 40.3125 33.355469 39.855469 33.421875 39.445312 33.617188 C 39.101562 33.785156 38.894531 34.121094 38.703125 34.4375 C 38.898438 33.425781 39.054688 32.402344 39.226562 31.386719 C 39.25 31.191406 39.339844 30.980469 39.285156 30.792969 C 38.980469 30.632812 38.636719 30.570312 38.316406 30.460938 C 36.21875 29.804688 34.054688 29.382812 31.875 29.132812 C 31.234375 29.09375 30.601562 28.972656 29.960938 28.957031 C 29.207031 28.90625 28.449219 28.914062 27.699219 28.84375 C 27.378906 28.824219 27.054688 28.84375 26.738281 28.882812 C 25.941406 28.941406 25.136719 28.945312 24.347656 29.070312 C 21.722656 29.324219 19.121094 29.832031 16.589844 30.566406 C 16.617188 31.097656 16.765625 31.617188 16.828125 32.144531 C 16.949219 32.855469 17.0625 33.566406 17.191406 34.277344 C 16.988281 34.011719 16.808594 33.710938 16.503906 33.554688 C 16.066406 33.304688 15.546875 33.3125 15.066406 33.214844 C 15.054688 32.605469 15.078125 31.996094 15.066406 31.390625 C 15.054688 31.289062 15.046875 31.109375 14.902344 31.136719 C 14.578125 31.160156 14.28125 31.300781 13.972656 31.386719 C 13.972656 30.921875 13.976562 30.460938 13.972656 30 C 14.535156 29.976562 15.070312 29.785156 15.617188 29.660156 C 15.898438 29.574219 16.203125 29.554688 16.460938 29.402344 C 16.613281 29.308594 16.664062 29.128906 16.71875 28.96875 C 16.914062 29.164062 17.195312 29.320312 17.480469 29.25 C 18.066406 29.113281 18.660156 29.019531 19.246094 28.898438 C 19.535156 28.84375 19.796875 28.617188 19.828125 28.316406 C 19.898438 27.765625 19.816406 27.207031 19.898438 26.65625 C 19.949219 26.316406 19.957031 25.972656 19.976562 25.625 M 41.359375 27.050781 C 41.59375 27.03125 41.824219 27.070312 42.054688 27.113281 C 41.867188 27.234375 41.695312 27.378906 41.527344 27.523438 C 41.375 27.417969 41.316406 27.230469 41.359375 27.050781 M 10.140625 31.296875 C 10.367188 31.242188 10.597656 31.199219 10.824219 31.148438 C 10.847656 32.101562 10.804688 33.054688 10.839844 34.003906 C 11 34.050781 11.167969 34.109375 11.339844 34.078125 C 11.742188 34.027344 12.152344 34.019531 12.550781 33.9375 C 12.5625 34.65625 12.542969 35.371094 12.5625 36.085938 C 11.871094 36.160156 11.175781 36.261719 10.492188 36.394531 C 9.695312 36.5 8.910156 36.699219 8.121094 36.851562 C 7.113281 37.023438 6.132812 37.320312 5.175781 37.675781 C 5.007812 37.765625 4.828125 37.828125 4.652344 37.898438 C 5.597656 36.664062 6.519531 35.34375 7.855469 34.5 C 6.597656 34.679688 5.378906 35.035156 4.136719 35.285156 C 5.171875 34.132812 6.367188 33.128906 7.699219 32.335938 C 7.957031 32.210938 8.203125 32.066406 8.460938 31.941406 C 8.992188 31.652344 9.574219 31.484375 10.140625 31.296875 M 45.097656 31.253906 C 45.351562 31.265625 45.59375 31.347656 45.835938 31.414062 C 46.71875 31.617188 47.527344 32.042969 48.3125 32.480469 C 49.589844 33.257812 50.777344 34.214844 51.742188 35.359375 C 50.527344 35.101562 49.324219 34.785156 48.09375 34.578125 C 48.746094 35.046875 49.347656 35.582031 49.855469 36.203125 C 50.25 36.617188 50.589844 37.078125 50.925781 37.535156 C 51.023438 37.671875 51.132812 37.800781 51.179688 37.964844 C 50.335938 37.542969 49.414062 37.320312 48.507812 37.0625 C 48.046875 36.988281 47.59375 36.871094 47.128906 36.8125 C 46.609375 36.667969 46.070312 36.585938 45.539062 36.484375 C 45.296875 36.421875 45.046875 36.394531 44.796875 36.363281 C 44.785156 35.667969 44.789062 34.976562 44.796875 34.28125 C 44.898438 34.210938 45.015625 34.160156 45.09375 34.0625 C 45.148438 33.679688 45.101562 33.289062 45.113281 32.898438 C 45.101562 32.351562 45.136719 31.800781 45.097656 31.253906 Z M 45.097656 31.253906 "/>
<path style=" stroke:none;fill-rule:nonzero;fill:rgb(78.431373%,3.529412%,3.529412%);fill-opacity:1;" d="M 19.9375 22.074219 C 20.390625 21.515625 21.207031 21.285156 21.882812 21.523438 C 22.289062 21.617188 22.609375 21.917969 22.832031 22.257812 C 22.96875 22.546875 23.011719 22.875 22.992188 23.195312 C 23.515625 23.011719 24.074219 23.042969 24.617188 22.996094 C 24.910156 22.96875 25.207031 23.023438 25.503906 23.019531 C 25.800781 22.949219 26.082031 22.808594 26.394531 22.785156 C 27.039062 22.738281 27.722656 22.914062 28.199219 23.371094 C 28.320312 23.210938 28.4375 23.023438 28.640625 22.957031 C 28.933594 22.855469 29.246094 22.890625 29.550781 22.890625 C 30.023438 22.917969 30.5 22.871094 30.960938 22.996094 C 31.226562 23.070312 31.476562 22.90625 31.738281 22.890625 C 32.394531 22.824219 33.113281 22.972656 33.609375 23.433594 C 33.816406 23.617188 33.9375 23.875 34.046875 24.128906 C 34.34375 23.882812 34.644531 23.628906 35.015625 23.507812 C 36.234375 23.074219 37.726562 23.351562 38.617188 24.320312 C 38.78125 24.039062 39.074219 23.902344 39.382812 23.84375 C 40.023438 24.105469 40.75 24.058594 41.382812 24.359375 C 41.785156 24.195312 42.214844 24.265625 42.625 24.367188 C 42.695312 24.082031 42.765625 23.792969 42.917969 23.539062 C 43.011719 23.378906 43.195312 23.3125 43.359375 23.242188 C 43.546875 23.167969 43.738281 23.277344 43.921875 23.316406 C 44.566406 23.460938 45.199219 23.632812 45.832031 23.824219 C 46.003906 23.917969 46.152344 24.074219 46.207031 24.269531 C 46.308594 24.574219 46.15625 24.882812 46.050781 25.167969 C 45.847656 25.550781 45.734375 25.976562 45.507812 26.347656 C 45.367188 26.582031 45.199219 26.796875 45.050781 27.027344 C 45.007812 27.980469 45.054688 28.933594 45.050781 29.890625 C 45.066406 30.34375 45.027344 30.800781 45.097656 31.253906 C 45.136719 31.800781 45.101562 32.351562 45.113281 32.898438 C 45.101562 33.289062 45.148438 33.679688 45.09375 34.0625 C 45.015625 34.160156 44.898438 34.210938 44.796875 34.28125 C 44.789062 34.976562 44.785156 35.667969 44.796875 36.363281 C 44.210938 36.273438 43.621094 36.207031 43.035156 36.128906 C 42.140625 36.089844 41.253906 35.945312 40.371094 35.773438 C 39.917969 35.671875 39.457031 35.542969 39.0625 35.285156 C 38.785156 35.113281 38.652344 34.753906 38.703125 34.4375 C 38.894531 34.121094 39.101562 33.785156 39.445312 33.617188 C 39.855469 33.417969 40.3125 33.355469 40.753906 33.277344 C 40.761719 32.648438 40.734375 32.015625 40.773438 31.386719 C 41.339844 31.523438 41.835938 31.847656 42.394531 32.011719 C 42.398438 31.355469 42.398438 30.699219 42.394531 30.042969 C 42.101562 29.890625 41.792969 29.742188 41.566406 29.492188 C 41.40625 29.320312 41.308594 29.101562 41.226562 28.886719 C 41.113281 29.132812 40.949219 29.433594 40.640625 29.441406 C 40.203125 29.464844 39.78125 29.316406 39.355469 29.242188 C 38.929688 29.132812 38.484375 29.105469 38.070312 28.957031 C 37.890625 28.894531 37.789062 28.707031 37.625 28.628906 C 37.347656 28.640625 37.082031 28.765625 36.804688 28.792969 C 35.863281 28.890625 34.855469 28.691406 34.121094 28.070312 C 33.964844 28.195312 33.796875 28.34375 33.578125 28.34375 C 32.617188 28.371094 31.671875 28.164062 30.710938 28.191406 C 30.027344 28.15625 29.34375 28.171875 28.660156 28.125 C 27.839844 28.179688 27.019531 28.144531 26.199219 28.175781 C 25.648438 28.214844 25.09375 28.183594 24.546875 28.273438 C 24.097656 28.34375 23.632812 28.273438 23.183594 28.367188 C 22.59375 28.480469 21.992188 28.492188 21.402344 28.59375 C 21.125 28.644531 20.8125 28.628906 20.585938 28.445312 C 20.386719 28.277344 20.339844 28.007812 20.296875 27.765625 C 20.261719 27.511719 20.1875 27.269531 20.160156 27.015625 C 20.125 26.769531 20.28125 26.558594 20.332031 26.332031 C 20.34375 26.15625 20.304688 25.980469 20.28125 25.808594 C 20.179688 25.746094 20.078125 25.6875 19.976562 25.625 C 19.957031 25.972656 19.949219 26.316406 19.898438 26.65625 C 19.816406 27.207031 19.898438 27.765625 19.828125 28.316406 C 19.796875 28.617188 19.535156 28.84375 19.246094 28.898438 C 18.660156 29.019531 18.066406 29.113281 17.480469 29.25 C 17.195312 29.320312 16.914062 29.164062 16.71875 28.96875 C 16.664062 29.128906 16.613281 29.308594 16.460938 29.402344 C 16.203125 29.554688 15.898438 29.574219 15.617188 29.660156 C 15.070312 29.785156 14.535156 29.976562 13.972656 30 C 13.976562 30.460938 13.972656 30.921875 13.972656 31.386719 C 14.28125 31.300781 14.578125 31.160156 14.902344 31.136719 C 15.046875 31.109375 15.054688 31.289062 15.066406 31.390625 C 15.078125 31.996094 15.054688 32.605469 15.066406 33.214844 C 15.546875 33.3125 16.066406 33.304688 16.503906 33.554688 C 16.808594 33.710938 16.988281 34.011719 17.191406 34.277344 C 17.269531 34.625 17.148438 35.054688 16.816406 35.226562 C 16.007812 35.703125 15.050781 35.78125 14.148438 35.925781 C 13.617188 35.972656 13.09375 36.050781 12.5625 36.085938 C 12.542969 35.371094 12.5625 34.65625 12.550781 33.9375 C 12.152344 34.019531 11.742188 34.027344 11.339844 34.078125 C 11.167969 34.109375 11 34.050781 10.839844 34.003906 C 10.804688 33.054688 10.847656 32.101562 10.824219 31.148438 C 10.828125 29.941406 10.839844 28.738281 10.820312 27.535156 C 10.824219 27.371094 10.816406 27.203125 10.839844 27.042969 C 10.933594 26.875 11.101562 26.753906 11.128906 26.550781 L 11.140625 26.652344 C 11.164062 26.527344 11.226562 26.402344 11.214844 26.277344 C 11.070312 26.238281 10.917969 26.226562 10.785156 26.15625 C 10.457031 25.863281 10.390625 25.414062 10.191406 25.046875 C 10.070312 24.824219 10.078125 24.558594 10.144531 24.320312 C 10.195312 24.253906 10.246094 24.1875 10.292969 24.117188 C 10.347656 24.074219 10.402344 24.027344 10.453125 23.984375 C 11.109375 23.800781 11.757812 23.582031 12.421875 23.4375 C 12.863281 23.363281 13.285156 23.15625 13.738281 23.199219 C 13.972656 23.230469 14.125 23.007812 14.34375 22.972656 C 14.917969 22.855469 15.488281 22.730469 16.054688 22.605469 C 16.242188 22.558594 16.425781 22.617188 16.605469 22.65625 C 16.746094 22.546875 16.894531 22.441406 17.074219 22.417969 C 17.625 22.3125 18.183594 22.234375 18.738281 22.140625 C 19.140625 22.109375 19.542969 21.929688 19.9375 22.074219 M 19.988281 22.335938 C 19.835938 22.257812 19.667969 22.148438 19.488281 22.214844 C 18.898438 22.28125 18.316406 22.390625 17.734375 22.476562 C 17.363281 22.585938 16.890625 22.523438 16.660156 22.902344 C 16.492188 22.832031 16.316406 22.757812 16.128906 22.789062 C 15.667969 22.859375 15.21875 22.96875 14.761719 23.058594 C 14.460938 23.128906 14.089844 23.167969 13.957031 23.496094 C 13.839844 23.390625 13.695312 23.320312 13.535156 23.355469 C 12.585938 23.550781 11.660156 23.847656 10.71875 24.09375 C 10.378906 24.144531 10.179688 24.578125 10.335938 24.875 C 10.472656 25.210938 10.574219 25.566406 10.769531 25.875 C 10.917969 26.105469 11.222656 26.089844 11.464844 26.070312 C 12.222656 27.144531 12.964844 28.222656 13.691406 29.316406 C 13.808594 29.476562 13.914062 29.679688 14.121094 29.734375 C 14.363281 29.800781 14.609375 29.699219 14.839844 29.632812 C 15.3125 29.503906 15.792969 29.394531 16.269531 29.285156 C 16.34375 29.210938 16.417969 29.136719 16.496094 29.066406 C 16.539062 28.804688 16.523438 28.539062 16.527344 28.273438 C 16.667969 28.433594 16.75 28.632812 16.867188 28.808594 C 16.996094 29.015625 17.28125 29.09375 17.507812 29.027344 C 17.777344 28.957031 18.054688 28.9375 18.328125 28.867188 C 18.703125 28.789062 19.101562 28.785156 19.453125 28.617188 C 19.789062 28.28125 19.625 27.773438 19.675781 27.355469 C 19.746094 26.859375 19.707031 26.359375 19.738281 25.859375 C 19.828125 25.398438 19.769531 24.925781 19.875 24.46875 C 19.953125 24.742188 19.957031 25.03125 20.035156 25.300781 C 20.101562 25.5 20.300781 25.59375 20.464844 25.691406 C 20.453125 25.957031 20.558594 26.203125 20.578125 26.464844 C 20.40625 26.613281 20.285156 26.847656 20.363281 27.078125 C 20.464844 27.449219 20.449219 27.855469 20.625 28.210938 C 20.746094 28.378906 20.988281 28.433594 21.1875 28.417969 C 21.640625 28.332031 22.105469 28.332031 22.5625 28.253906 C 22.882812 28.175781 23.230469 28.265625 23.523438 28.085938 C 23.910156 28.21875 24.296875 28.050781 24.691406 28.070312 C 25.125 28.082031 25.554688 28 25.992188 28.015625 C 26.15625 28.03125 26.308594 27.914062 26.472656 27.96875 C 26.765625 28.058594 27.0625 27.9375 27.359375 27.945312 C 27.792969 27.941406 28.226562 27.945312 28.660156 27.921875 C 29.574219 27.945312 30.484375 28.039062 31.402344 28.011719 C 31.785156 28.082031 32.175781 28.0625 32.5625 28.09375 C 32.949219 28.167969 33.351562 28.160156 33.746094 28.144531 C 33.914062 28.027344 34.027344 27.851562 34.039062 27.640625 C 34.207031 27.953125 34.527344 28.136719 34.828125 28.300781 C 35.144531 28.476562 35.507812 28.507812 35.847656 28.605469 C 36.121094 28.628906 36.394531 28.636719 36.671875 28.621094 C 37.070312 28.566406 37.453125 28.445312 37.839844 28.339844 C 37.839844 28.59375 38.054688 28.824219 38.3125 28.828125 C 38.742188 28.921875 39.179688 28.980469 39.609375 29.09375 C 39.980469 29.128906 40.339844 29.328125 40.714844 29.222656 C 41.042969 29.042969 41.046875 28.625 41.179688 28.316406 C 41.289062 28.070312 41.320312 27.804688 41.285156 27.539062 C 41.214844 27.460938 41.144531 27.382812 41.070312 27.304688 C 41.117188 27.136719 41.175781 26.96875 41.292969 26.835938 C 41.640625 26.8125 41.988281 26.972656 42.328125 26.832031 C 42.308594 26.976562 42.289062 27.121094 42.265625 27.265625 C 41.765625 27.460938 41.335938 27.949219 41.410156 28.515625 C 41.359375 28.964844 41.65625 29.367188 42.023438 29.589844 C 42.257812 29.753906 42.554688 29.773438 42.824219 29.832031 C 43.167969 29.796875 43.535156 29.730469 43.8125 29.5 C 44.230469 29.1875 44.421875 28.609375 44.261719 28.109375 C 44.242188 28.035156 44.1875 27.949219 44.253906 27.878906 C 44.519531 27.46875 44.800781 27.066406 45.070312 26.65625 C 45.238281 26.394531 45.460938 26.15625 45.554688 25.851562 C 45.695312 25.457031 45.882812 25.078125 46.027344 24.683594 C 46.144531 24.417969 45.972656 24.109375 45.726562 23.984375 C 44.988281 23.800781 44.265625 23.550781 43.515625 23.414062 C 43.390625 23.421875 43.28125 23.472656 43.164062 23.507812 C 42.929688 23.828125 42.847656 24.226562 42.714844 24.59375 C 42.457031 24.53125 42.203125 24.457031 41.9375 24.441406 C 41.707031 24.433594 41.488281 24.570312 41.257812 24.519531 C 40.992188 24.359375 40.671875 24.335938 40.375 24.253906 C 39.949219 24.210938 39.53125 24.015625 39.097656 24.117188 C 38.8125 24.242188 38.78125 24.570312 38.6875 24.828125 C 38.535156 24.570312 38.363281 24.3125 38.113281 24.128906 C 37.101562 23.355469 35.589844 23.242188 34.527344 23.988281 C 34.296875 24.117188 34.164062 24.359375 33.933594 24.484375 C 33.863281 23.972656 33.53125 23.515625 33.066406 23.289062 C 32.617188 23.085938 32.113281 23.003906 31.625 23.085938 C 31.410156 23.132812 31.195312 23.285156 30.96875 23.203125 C 30.464844 23.035156 29.933594 23.089844 29.414062 23.074219 C 29.125 23.070312 28.804688 23.027344 28.5625 23.21875 C 28.34375 23.390625 28.359375 23.695312 28.359375 23.945312 C 28.1875 23.636719 27.949219 23.351562 27.625 23.195312 C 27.175781 22.949219 26.644531 22.976562 26.15625 23.015625 C 25.910156 23.035156 25.707031 23.1875 25.488281 23.277344 C 25.335938 23.234375 25.191406 23.15625 25.03125 23.175781 C 24.40625 23.222656 23.769531 23.203125 23.152344 23.34375 C 22.972656 23.398438 22.867188 23.570312 22.828125 23.746094 C 22.761719 23.683594 22.710938 23.609375 22.664062 23.53125 C 22.871094 23.085938 22.863281 22.507812 22.515625 22.136719 C 22.214844 21.769531 21.734375 21.589844 21.269531 21.632812 C 20.75 21.605469 20.25 21.890625 19.988281 22.335938 M 41.359375 27.050781 C 41.316406 27.230469 41.375 27.417969 41.527344 27.523438 C 41.695312 27.378906 41.867188 27.234375 42.054688 27.113281 C 41.824219 27.070312 41.59375 27.03125 41.359375 27.050781 M 28.617188 25.082031 C 28.675781 25.113281 28.695312 25.164062 28.683594 25.230469 C 28.683594 25.453125 28.675781 25.675781 28.683594 25.898438 C 28.667969 25.902344 28.632812 25.902344 28.613281 25.902344 C 28.617188 25.628906 28.609375 25.355469 28.617188 25.082031 M 23.011719 25.171875 C 23.136719 25.207031 23.242188 25.28125 23.34375 25.359375 C 23.347656 25.628906 23.347656 25.910156 23.441406 26.167969 C 23.347656 26.167969 23.253906 26.167969 23.160156 26.164062 C 23.132812 25.832031 23.046875 25.507812 23.011719 25.171875 Z M 23.011719 25.171875 "/>
</g>
</svg>
